#N canvas 223 107 654 587 10;
#X obj 165 13 adc~ 1 2 3 4 5 6;
#X obj 258 52 - 100;
#X obj 258 33 env~ 512;
#X obj 239 90 - 100;
#X obj 239 71 env~ 512;
#X obj 220 128 - 100;
#X obj 220 109 env~ 512;
#X obj 202 53 - 100;
#X obj 202 34 env~ 512;
#X obj 183 91 - 100;
#X obj 183 72 env~ 512;
#X obj 164 129 - 100;
#X obj 165 110 env~ 512;
#X obj 336 69 outlet;
#X obj 296 107 outlet;
#X obj 266 145 outlet;
#X obj 116 70 outlet;
#X obj 78 108 outlet;
#X obj 53 146 outlet;
#X connect 0 0 12 0;
#X connect 0 1 10 0;
#X connect 0 2 8 0;
#X connect 0 3 6 0;
#X connect 0 4 4 0;
#X connect 0 5 2 0;
#X connect 1 0 13 0;
#X connect 2 0 1 0;
#X connect 3 0 14 0;
#X connect 4 0 3 0;
#X connect 5 0 15 0;
#X connect 6 0 5 0;
#X connect 7 0 16 0;
#X connect 8 0 7 0;
#X connect 9 0 17 0;
#X connect 10 0 9 0;
#X connect 11 0 18 0;
#X connect 12 0 11 0;
#X coords 0 0 1 1 280 175 0;
