#N canvas 0 21 1366 724 10;
#X obj 14 2 nanokontrol2_gui;
#X msg 1040 7 todo: EQ/filterbank;
#N canvas 429 176 955 620 6-in 0;
#X obj 352 384 - 100;
#X obj 352 365 env~ 512;
#X obj 328 422 - 100;
#X obj 328 403 env~ 512;
#X obj 305 460 - 100;
#X obj 305 441 env~ 512;
#X obj 234 401 - 100;
#X obj 234 382 env~ 512;
#X obj 211 439 - 100;
#X obj 211 420 env~ 512;
#X obj 188 477 - 100;
#X obj 189 458 env~ 512;
#X obj 451 401 outlet;
#X obj 411 439 outlet;
#X obj 381 477 outlet;
#X obj 144 418 outlet;
#X obj 106 456 outlet;
#X obj 81 494 outlet;
#X obj 516 403 outlet~;
#X obj 544 383 outlet~;
#X obj 576 364 outlet~;
#X obj 616 344 outlet~;
#X obj 644 325 outlet~;
#X obj 669 305 outlet~;
#X obj 189 240 *~;
#X obj 211 217 *~;
#X obj 234 198 *~;
#X obj 305 225 *~;
#X obj 328 204 *~;
#X obj 352 185 *~;
#X obj 527 66 loadbang;
#X obj 37 168 line~;
#X obj 89 168 line~;
#X obj 150 167 line~;
#X obj 309 146 line~;
#X obj 364 149 line~;
#X obj 429 149 line~;
#X msg 527 109 20;
#X text 557 83 "LAG" TIME FOR INPUT VOLUME MODIFICATIONS IN MILISECONDS
;
#X obj 22 105 inlet;
#X obj 89 106 inlet;
#X obj 309 105 inlet;
#X obj 364 101 inlet;
#X obj 432 101 inlet;
#X obj 150 106 inlet;
#X obj 22 126 pack;
#X obj 89 126 pack;
#X obj 150 126 pack;
#X obj 309 126 pack;
#X obj 364 126 pack;
#X obj 429 126 pack;
#X obj 200 167 adc~ 1 2 3 4 5 6;
#X connect 0 0 12 0;
#X connect 1 0 0 0;
#X connect 2 0 13 0;
#X connect 3 0 2 0;
#X connect 4 0 14 0;
#X connect 5 0 4 0;
#X connect 6 0 15 0;
#X connect 7 0 6 0;
#X connect 8 0 16 0;
#X connect 9 0 8 0;
#X connect 10 0 17 0;
#X connect 11 0 10 0;
#X connect 24 0 11 0;
#X connect 24 0 18 0;
#X connect 25 0 9 0;
#X connect 25 0 19 0;
#X connect 26 0 7 0;
#X connect 26 0 20 0;
#X connect 27 0 5 0;
#X connect 27 0 21 0;
#X connect 28 0 3 0;
#X connect 28 0 22 0;
#X connect 29 0 1 0;
#X connect 29 0 23 0;
#X connect 30 0 37 0;
#X connect 31 0 24 1;
#X connect 32 0 25 1;
#X connect 33 0 26 1;
#X connect 34 0 27 1;
#X connect 35 0 28 1;
#X connect 36 0 29 1;
#X connect 37 0 45 1;
#X connect 37 0 46 1;
#X connect 37 0 47 1;
#X connect 37 0 48 1;
#X connect 37 0 49 1;
#X connect 37 0 50 1;
#X connect 39 0 45 0;
#X connect 40 0 46 0;
#X connect 41 0 48 0;
#X connect 42 0 49 0;
#X connect 43 0 50 0;
#X connect 44 0 47 0;
#X connect 45 0 31 0;
#X connect 46 0 32 0;
#X connect 47 0 33 0;
#X connect 48 0 34 0;
#X connect 49 0 35 0;
#X connect 50 0 36 0;
#X connect 51 0 24 0;
#X connect 51 1 25 0;
#X connect 51 2 26 0;
#X connect 51 3 27 0;
#X connect 51 4 28 0;
#X connect 51 5 29 0;
#X restore 497 44 pd 6-in monitor;
#N canvas 54 247 1366 722 6-out-monitor 0;
#X obj 239 281 dac~ 1 2 3 4 5 6;
#X obj 387 322 - 100;
#X obj 387 303 env~ 512;
#X obj 368 360 - 100;
#X obj 368 341 env~ 512;
#X obj 349 398 - 100;
#X obj 349 379 env~ 512;
#X obj 201 323 - 100;
#X obj 201 304 env~ 512;
#X obj 152 361 - 100;
#X obj 152 342 env~ 512;
#X obj 133 399 - 100;
#X obj 134 380 env~ 512;
#X obj 465 339 outlet;
#X obj 425 377 outlet;
#X obj 395 415 outlet;
#X obj 85 340 outlet;
#X obj 47 378 outlet;
#X obj 22 416 outlet;
#X obj 96 167 *~;
#X obj 152 167 *~;
#X obj 204 195 *~;
#X obj 348 226 *~;
#X obj 368 246 *~;
#X obj 387 265 *~;
#X obj 652 59 loadbang;
#X obj 363 146 line~;
#X obj 456 149 line~;
#X obj 584 139 line~;
#X msg 652 102 20;
#X text 682 76 "LAG" TIME FOR INPUT VOLUME MODIFICATIONS IN MILISECONDS
;
#X obj 391 100 inlet;
#X obj 489 100 inlet;
#X obj 584 100 inlet;
#X obj 391 119 pack;
#X obj 489 119 pack;
#X obj 584 119 pack;
#X obj 104 139 line~;
#X obj 195 139 line~;
#X obj 302 139 line~;
#X obj 104 100 inlet;
#X obj 195 100 inlet;
#X obj 302 100 inlet;
#X obj 104 119 pack;
#X obj 195 119 pack;
#X obj 302 119 pack;
#X obj 59 100 inlet~;
#X obj 152 100 inlet~;
#X obj 260 100 inlet~;
#X obj 348 100 inlet~;
#X obj 440 98 inlet~;
#X obj 541 100 inlet~;
#X connect 1 0 13 0;
#X connect 2 0 1 0;
#X connect 3 0 14 0;
#X connect 4 0 3 0;
#X connect 5 0 15 0;
#X connect 6 0 5 0;
#X connect 7 0 16 0;
#X connect 8 0 7 0;
#X connect 9 0 17 0;
#X connect 10 0 9 0;
#X connect 11 0 18 0;
#X connect 12 0 11 0;
#X connect 19 0 0 0;
#X connect 19 0 12 0;
#X connect 20 0 0 1;
#X connect 20 0 10 0;
#X connect 21 0 0 2;
#X connect 21 0 8 0;
#X connect 22 0 0 3;
#X connect 22 0 6 0;
#X connect 23 0 0 4;
#X connect 23 0 4 0;
#X connect 24 0 0 5;
#X connect 24 0 2 0;
#X connect 25 0 29 0;
#X connect 26 0 22 1;
#X connect 27 0 23 1;
#X connect 28 0 24 1;
#X connect 29 0 34 1;
#X connect 29 0 35 1;
#X connect 29 0 36 1;
#X connect 29 0 45 1;
#X connect 29 0 44 1;
#X connect 29 0 43 1;
#X connect 31 0 34 0;
#X connect 32 0 35 0;
#X connect 33 0 36 0;
#X connect 34 0 26 0;
#X connect 35 0 27 0;
#X connect 36 0 28 0;
#X connect 37 0 19 1;
#X connect 38 0 20 1;
#X connect 39 0 21 1;
#X connect 40 0 43 0;
#X connect 41 0 44 0;
#X connect 42 0 45 0;
#X connect 43 0 37 0;
#X connect 44 0 38 0;
#X connect 45 0 39 0;
#X connect 46 0 19 0;
#X connect 47 0 20 0;
#X connect 48 0 21 0;
#X connect 49 0 22 0;
#X connect 50 0 23 0;
#X connect 51 0 24 0;
#X restore 977 752 pd 6-out-monitor;
#X obj 985 769 vu 10 80 empty empty -1 0 0 10 -66577 -1 0 0;
#X obj 999 769 vu 10 80 empty empty -1 0 0 10 -66577 -1 0 0;
#X obj 1013 769 vu 10 80 empty empty -1 0 0 10 -66577 -1 0 0;
#X obj 1027 769 vu 10 80 empty empty -1 0 0 10 -66577 -1 0 0;
#X obj 1041 769 vu 10 80 empty empty -1 0 0 10 -66577 -1 0 0;
#X obj 1055 769 vu 10 80 empty empty -1 0 0 10 -66577 -1 0 0;
#X obj 497 63 vu 10 80 empty empty -1 0 0 10 -66577 -1 0 0;
#X obj 511 63 vu 10 80 empty empty -1 0 0 10 -66577 -1 0 0;
#X obj 525 63 vu 10 80 empty empty -1 0 0 10 -66577 -1 0 0;
#X obj 539 63 vu 10 80 empty empty -1 0 0 10 -66577 -1 0 0;
#X obj 553 63 vu 10 80 empty empty -1 0 0 10 -66577 -1 0 0;
#X obj 567 63 vu 10 80 empty empty -1 0 0 10 -66577 -1 0 0;
#X text 734 37 nummer 35;
#X obj 497 8 r nano1;
#X obj 581 159 send~ mic1;
#X obj 595 140 send~ mic2;
#X floatatom 1081 799 5 0 0 0 - - -, f 5;
#X obj 1081 780 r nano8;
#X floatatom 578 25 5 0 0 0 - - -, f 5;
#X text 734 54 Julia nr 16;
#X floatatom 393 675 5 0 0 0 - - -, f 5;
#X obj 636 597 vsl 15 50 0 1 0 0 empty empty empty 0 -9 0 10 -262144
-1 -1 4508 1;
#X obj 514 597 vsl 15 50 0 1 0 0 empty empty empty 0 -9 0 10 -262144
-1 -1 294 1;
#N canvas 247 78 469 560 density-manager(sig-upBoost-downBoost) 0;
#X obj 45 43 inlet~;
#X text 40 23 signal;
#X obj 166 41 inlet;
#X text 160 16 up-boost(0..1);
#X obj 261 43 inlet;
#X text 255 18 down-boost(0..1);
#X obj 241 166 loadbang;
#X msg 241 188 1;
#X obj 241 228 f;
#X obj 84 218 nbx 5 14 0 1e+37 0 0 empty empty empty 0 -8 0 10 -262144
-1 -1 0 256 0;
#X obj 45 125 delta;
#X obj 45 68 env~ 16384;
#X obj 45 106 line;
#X msg 45 87 \$1 200;
#X obj 84 199 +;
#X obj 241 208 metro 50;
#X floatatom 301 188 5 0 0 0 - - -, f 5;
#X obj 45 145 moses 0;
#X obj 261 82 vsl 15 50 0 1 0 0 empty empty empty 0 -9 0 10 -262144
-1 -1 4508 1;
#X obj 167 91 vsl 15 50 0 1 0 0 empty empty empty 0 -9 0 10 -262144
-1 -1 294 1;
#X obj 83 265 outlet;
#X obj 277 228 - 0.5;
#X obj 301 166 expr int($f1*-400)+401;
#X obj 84 165 expr $f1*($f2*3+1);
#X connect 0 0 11 0;
#X connect 2 0 19 0;
#X connect 4 0 18 0;
#X connect 6 0 7 0;
#X connect 7 0 15 0;
#X connect 8 0 14 0;
#X connect 8 0 9 0;
#X connect 9 0 14 1;
#X connect 9 0 20 0;
#X connect 9 0 21 0;
#X connect 10 0 17 0;
#X connect 11 0 13 0;
#X connect 12 0 10 0;
#X connect 13 0 12 0;
#X connect 14 0 9 0;
#X connect 15 0 8 0;
#X connect 16 0 15 1;
#X connect 17 1 23 0;
#X connect 18 0 22 0;
#X connect 19 0 23 1;
#X connect 21 0 8 1;
#X connect 22 0 16 0;
#X connect 23 0 14 0;
#X restore 393 654 pd density-manager(sig-upBoost-downBoost);
#X obj 566 621 unpack;
#X obj 668 10 loadbang;
#X msg 668 29 \; pd dsp 1;
#X text 738 21 hye-jin 17(aeolian harp) "the sound of power lines"
;
#X msg 1040 46 todo: vbap for ambient sounds;
#X text 733 4 maren: 39 130 "electronic changes";
#X msg 1040 65 todo: effect of ascending shepard;
#X msg 1038 26 todo: boulez-alike permutator;
#X obj 1578 71 vsl 15 40 0 1 0 0 empty empty speed 0 -9 0 10 -3904
-1 -1 0 1;
#X obj 1365 139 tgl 15 0 empty empty empty 17 7 0 10 -262144 -1 -1
0 1;
#N canvas 132 341 749 614 morsecoder(seq+play 0;
#N canvas 151 157 405 564 word-editor 0;
#X msg -474 203 \$1;
#X obj -474 183 symbol;
#X obj -407 271 list;
#X obj -474 225 t a b;
#X msg -386 246 word;
#X obj -474 313 route list;
#X msg -474 389;
#X msg -373 358 set;
#X obj -474 290 list append;
#X obj -474 336 list split 1;
#X msg -474 358 add2 \$1;
#X obj -424 224 t b b b b;
#X msg -639 372 set ...wait;
#X obj -474 430 outlet;
#X obj -668 -58 inlet;
#X obj -410 197 loadbang;
#X obj -556 32 r end-word;
#X text -561 15 (from word-coder);
#X obj -668 85 spigot;
#X obj -635 68 tgl 15 0 empty empty empty 17 7 0 10 -262144 -1 -1 1
1;
#X msg -635 49 1;
#X obj -639 294 t b b;
#X obj -518 259 tgl 15 0 empty empty empty 17 7 0 10 -262144 -1 -1
0 1;
#X obj -639 274 spigot;
#X obj -502 220 bng 15 250 50 0 empty empty empty 17 7 0 10 -262144
-1 -1;
#X msg -502 238 1;
#X msg -529 238 0;
#X obj -663 25 r block;
#X msg -663 49 0;
#X obj -465 410 send block;
#X obj -612 25 loadbang;
#X obj -373 389 send display;
#X text -370 406 (to main patch);
#X obj -423 24 f;
#X obj -423 43 + 1;
#X floatatom -423 62 5 0 0 0 - - -, f 5;
#X obj -423 7 bng 15 250 50 0 empty empty empty 17 7 0 10 -262144 -1
-1;
#X obj -423 -14 t b b;
#X msg -396 6 -1;
#X obj -423 79 >=;
#X obj -423 136 tgl 15 0 empty empty empty 17 7 0 10 -262144 -1 -1
1 1;
#X obj -362 -31 loadbang;
#X obj -639 397 send limiter;
#X obj -423 -34 r limiter;
#X obj -415 168 send limiter2;
#X obj -489 -10 r limiter2;
#X obj -373 423 send limiter;
#X obj -474 151 spigot;
#X obj -423 98 - 1;
#X obj -423 117 abs;
#X msg -362 6 28;
#X obj -584 151 spigot;
#X msg -556 51 CLEAR;
#X obj -639 114 route ENTER-WORD float CLEAR;
#X text -416 -54 DISPLAY-LIMITER;
#X text -655 8 INPUT-BLOCKER;
#X text -579 98 BODY;
#X obj -394 99 loadbang;
#X msg -394 119 1;
#X connect 0 0 3 0;
#X connect 0 0 24 0;
#X connect 1 0 0 0;
#X connect 1 0 24 0;
#X connect 2 0 8 1;
#X connect 3 0 8 0;
#X connect 3 1 2 0;
#X connect 4 0 2 1;
#X connect 5 0 9 0;
#X connect 6 0 13 0;
#X connect 6 0 29 0;
#X connect 7 0 6 0;
#X connect 7 0 31 0;
#X connect 8 0 2 1;
#X connect 8 0 5 0;
#X connect 9 0 10 0;
#X connect 10 0 6 0;
#X connect 10 0 31 0;
#X connect 11 0 8 0;
#X connect 11 1 2 0;
#X connect 11 2 4 0;
#X connect 11 3 7 0;
#X connect 11 3 46 0;
#X connect 12 0 6 0;
#X connect 12 0 31 0;
#X connect 14 0 18 0;
#X connect 15 0 11 0;
#X connect 16 0 20 0;
#X connect 16 0 52 0;
#X connect 18 0 53 0;
#X connect 19 0 18 1;
#X connect 20 0 19 0;
#X connect 21 0 12 0;
#X connect 21 0 26 0;
#X connect 21 0 42 0;
#X connect 21 1 6 0;
#X connect 22 0 23 1;
#X connect 23 0 21 0;
#X connect 24 0 25 0;
#X connect 25 0 22 0;
#X connect 26 0 22 0;
#X connect 27 0 28 0;
#X connect 28 0 19 0;
#X connect 30 0 20 0;
#X connect 33 0 34 0;
#X connect 34 0 33 1;
#X connect 34 0 35 0;
#X connect 35 0 39 0;
#X connect 36 0 33 0;
#X connect 37 0 36 0;
#X connect 37 1 38 0;
#X connect 38 0 33 1;
#X connect 39 0 48 0;
#X connect 40 0 47 1;
#X connect 40 0 51 1;
#X connect 41 0 37 0;
#X connect 41 0 50 0;
#X connect 43 0 37 0;
#X connect 45 0 36 0;
#X connect 47 0 44 0;
#X connect 47 0 1 0;
#X connect 48 0 49 0;
#X connect 49 0 40 0;
#X connect 50 0 39 1;
#X connect 51 0 44 0;
#X connect 51 0 0 0;
#X connect 52 0 53 0;
#X connect 53 0 23 0;
#X connect 53 1 51 0;
#X connect 53 2 26 0;
#X connect 53 2 11 0;
#X connect 53 3 47 0;
#X connect 57 0 58 0;
#X connect 58 0 40 0;
#X restore 128 131 pd word-editor;
#N canvas 143 75 904 674 word-coder 0;
#X obj -710 -291 inlet;
#X obj -710 -261 list split 1;
#X msg -710 -192 set \$1;
#X obj -710 -173 route set;
#X msg -254 46 3 1 3 1 3;
#X msg -209 -30 1 1 1 1 1;
#X obj -641 -203 r next-letter;
#X obj -641 -182 list;
#X msg -390 274 3 1 1 1 3 1 1;
#X msg -379 255 3 1 1 1 1;
#X msg -356 217 1 1 1 1 3 1 1;
#X msg -345 198 3 1 3 1 1;
#X msg -333 179 1 1 1 1 1 1 1;
#X msg -322 160 1 1 1;
#X msg -311 141 1 1 3 1 3 1 3;
#X msg -299 122 3 1 1 1 3;
#X msg -288 103 1 1 3 1 1 1 1;
#X msg -277 84 3 1 3;
#X msg -265 65 3 1 1;
#X msg -243 27 1 1 3 1 3 1 1;
#X msg -231 8 3 1 3 1 1 1 3;
#X msg -220 -11 1 1 3 1 1;
#X msg -197 -49 3;
#X msg -367 236 1;
#X obj -710 329 outlet;
#X obj -641 -241 send end-word;
#X text -644 -224 (to word-editor);
#X obj -710 -153 route 1 2 3 4 5 6 7 8 9 0;
#X msg -696 28 1 1 1 1 3 1 3 1 3;
#X msg -681 8 1 1 1 1 1 1 3 1 3;
#X msg -652 -32 1 1 1 1 1 1 1 1 1;
#X msg -637 -52 3 1 1 1 1 1 1 1 1;
#X msg -622 -72 3 1 3 1 1 1 1 1 1;
#X msg -608 -92 3 1 3 1 3 1 1 1 1;
#X msg -593 -112 3 1 3 1 3 1 3 1 1;
#X msg -578 -132 3 1 3 1 3 1 3 1 3;
#X msg -710 48 1 1 3 1 3 1 3 1 3;
#X msg -118 -182 1 1 3 1 1 1 3 1 1 1 3;
#X msg -107 -201 3 1 1 1 3 1 3 1 1;
#X msg -95 -220 3 1 1 1 3 1 3 1 1 1 3;
#X msg -84 -239 1 1 1 1 3 1 3 1 1 1 1;
#X msg -186 -68 1 1 1 1 3;
#X msg -175 -87 1 1 1 1 1 1 3;
#X msg -163 -106 1 1 3 1 3;
#X msg -152 -125 3 1 1 1 1 1 3;
#X msg -141 -144 3 1 1 1 3 1 3;
#X msg -129 -163 3 1 3 1 1 1 1;
#X msg -666 -13 1 1 1 1 1 1 1 1 3;
#X msg -412 312 1 1 3;
#X msg -401 293 3 1 1 1 1 1 1;
#X msg -73 -258 3 1 1 1 1 1 1 1 1 1 3;
#X obj -412 -291 route A B C D E F G H I J K L M N O P Q R S T U V
W X Y Z . ( ) ? -;
#X obj -630 -291 inlet;
#X obj -630 -261 bng 15 250 50 0 empty empty empty 17 7 0 10 -262144
-1 -1;
#X connect 0 0 1 0;
#X connect 1 0 2 0;
#X connect 1 1 7 1;
#X connect 1 2 25 0;
#X connect 2 0 3 0;
#X connect 3 0 27 0;
#X connect 4 0 24 0;
#X connect 5 0 24 0;
#X connect 6 0 7 0;
#X connect 7 0 1 0;
#X connect 8 0 24 0;
#X connect 9 0 24 0;
#X connect 10 0 24 0;
#X connect 11 0 24 0;
#X connect 12 0 24 0;
#X connect 13 0 24 0;
#X connect 14 0 24 0;
#X connect 15 0 24 0;
#X connect 16 0 24 0;
#X connect 17 0 24 0;
#X connect 18 0 24 0;
#X connect 19 0 24 0;
#X connect 20 0 24 0;
#X connect 21 0 24 0;
#X connect 22 0 24 0;
#X connect 23 0 24 0;
#X connect 27 0 36 0;
#X connect 27 1 28 0;
#X connect 27 2 29 0;
#X connect 27 3 47 0;
#X connect 27 4 30 0;
#X connect 27 5 31 0;
#X connect 27 6 32 0;
#X connect 27 7 33 0;
#X connect 27 8 34 0;
#X connect 27 9 35 0;
#X connect 27 10 51 0;
#X connect 28 0 24 0;
#X connect 29 0 24 0;
#X connect 30 0 24 0;
#X connect 31 0 24 0;
#X connect 32 0 24 0;
#X connect 33 0 24 0;
#X connect 34 0 24 0;
#X connect 35 0 24 0;
#X connect 36 0 24 0;
#X connect 37 0 24 0;
#X connect 38 0 24 0;
#X connect 39 0 24 0;
#X connect 40 0 24 0;
#X connect 41 0 24 0;
#X connect 42 0 24 0;
#X connect 43 0 24 0;
#X connect 44 0 24 0;
#X connect 45 0 24 0;
#X connect 46 0 24 0;
#X connect 47 0 24 0;
#X connect 48 0 24 0;
#X connect 49 0 24 0;
#X connect 50 0 24 0;
#X connect 51 0 48 0;
#X connect 51 1 49 0;
#X connect 51 2 8 0;
#X connect 51 3 9 0;
#X connect 51 4 23 0;
#X connect 51 5 10 0;
#X connect 51 6 11 0;
#X connect 51 7 12 0;
#X connect 51 8 13 0;
#X connect 51 9 14 0;
#X connect 51 10 15 0;
#X connect 51 11 16 0;
#X connect 51 12 17 0;
#X connect 51 13 18 0;
#X connect 51 14 4 0;
#X connect 51 15 19 0;
#X connect 51 16 20 0;
#X connect 51 17 21 0;
#X connect 51 18 5 0;
#X connect 51 19 22 0;
#X connect 51 20 41 0;
#X connect 51 21 42 0;
#X connect 51 22 43 0;
#X connect 51 23 44 0;
#X connect 51 24 45 0;
#X connect 51 25 46 0;
#X connect 51 26 37 0;
#X connect 51 27 38 0;
#X connect 51 28 39 0;
#X connect 51 29 40 0;
#X connect 51 30 50 0;
#X connect 52 0 53 0;
#X connect 53 0 25 0;
#X restore 128 150 pd word-coder;
#N canvas 420 266 301 208 word-sequencer 0;
#X obj 14 10 list split 1;
#X obj 27 32 list;
#X obj 14 75 del;
#X obj 14 109 tgl 15 0 empty empty empty 17 7 0 10 -262144 -1 -1 0
1;
#X obj 83 98 send next-letter;
#X obj 83 75 del;
#X msg 83 32 3;
#X obj 117 21 inlet;
#X obj 14 -22 inlet;
#X obj 14 129 outlet;
#X obj 83 54 * 50;
#X obj 14 54 * 50;
#X msg -26 32 1;
#X obj -26 13 bng 15 250 50 0 empty empty empty 17 7 0 10 -262144 -1
-1;
#X text 81 115 (to word-coder);
#X floatatom 117 40 5 0 0 0 - - -, f 5;
#X obj 154 39 inlet;
#X obj 48 75 bng 15 250 50 0 empty empty empty 17 7 0 10 -262144 -1
-1;
#X msg 48 92 0;
#X msg 154 58 stop;
#X connect 0 0 11 0;
#X connect 0 1 1 1;
#X connect 0 2 6 0;
#X connect 1 0 0 0;
#X connect 2 0 1 0;
#X connect 2 0 3 0;
#X connect 3 0 9 0;
#X connect 5 0 4 0;
#X connect 6 0 10 0;
#X connect 7 0 15 0;
#X connect 8 0 0 0;
#X connect 8 0 13 0;
#X connect 10 0 5 0;
#X connect 11 0 2 0;
#X connect 12 0 3 0;
#X connect 13 0 12 0;
#X connect 15 0 10 1;
#X connect 15 0 11 1;
#X connect 16 0 19 0;
#X connect 17 0 18 0;
#X connect 18 0 3 0;
#X connect 19 0 5 0;
#X connect 19 0 17 0;
#X connect 19 0 2 0;
#X restore 128 169 pd word-sequencer;
#X msg 227 133 STOP;
#X obj 128 188 outlet;
#X obj 177 35 inlet;
#X obj 177 54 expr ($f1*-220)+250;
#X obj 227 85 bng 15 250 50 0 empty empty empty 17 7 0 10 -262144 -1
-1;
#X obj 53 49 inlet;
#X obj 116 58 inlet;
#X text 39 30 sequence+play;
#X text 124 43 stop;
#X text 217 35 speed (0-1);
#X obj 53 68 t l b;
#N canvas 351 223 450 522 list-eater 0;
#X obj 101 36 t l l;
#X obj 128 111 list split 1;
#X obj 141 130 list;
#X obj 39 113 until;
#X obj 39 64 list length;
#X obj 128 181 outlet;
#X obj 101 16 inlet;
#X text 115 163 list elements;
#X obj 195 201 outlet;
#X obj 39 142 f;
#X msg 99 111 0;
#X obj 39 164 + 1;
#X obj 66 86 t f f;
#X obj 66 184 moses;
#X text 83 218 returns list length afer last elt was sent;
#X connect 0 0 4 0;
#X connect 0 1 1 0;
#X connect 0 1 10 0;
#X connect 1 0 5 0;
#X connect 1 1 2 1;
#X connect 2 0 1 0;
#X connect 3 0 2 0;
#X connect 3 0 9 0;
#X connect 4 0 12 0;
#X connect 6 0 0 0;
#X connect 9 0 11 0;
#X connect 10 0 9 1;
#X connect 11 0 9 1;
#X connect 11 0 13 0;
#X connect 12 0 3 0;
#X connect 12 1 13 1;
#X connect 13 1 8 0;
#X restore 53 88 pd list-eater;
#X msg 128 109 ENTER-WORD;
#X connect 0 0 1 0;
#X connect 1 0 2 0;
#X connect 2 0 4 0;
#X connect 3 0 1 1;
#X connect 3 0 2 2;
#X connect 5 0 6 0;
#X connect 6 0 2 1;
#X connect 7 0 3 0;
#X connect 8 0 13 0;
#X connect 9 0 7 0;
#X connect 13 0 14 0;
#X connect 13 1 7 0;
#X connect 14 0 0 0;
#X connect 14 1 15 0;
#X connect 15 0 0 0;
#X restore 1365 119 pd morsecoder(seq+play \, stop \, speed);
#X obj 1471 102 bng 15 250 50 0 empty empty empty 17 7 0 10 -262144
-1 -1;
#N canvas 458 258 450 382 generate-permutation 0;
#X obj 51 35 inlet;
#N canvas 684 204 453 382 list-permute 0;
#X obj 113 -46 inlet;
#X obj 78 185 list;
#X obj 179 121 list append;
#X obj 255 120 t a;
#N canvas 42 461 295 369 get_random_element 0;
#X obj 101 82 list length;
#X obj 101 130 random;
#X obj 44 177 list split;
#X obj 44 253 list append;
#X obj 44 55 t a a;
#X obj 44 25 inlet;
#X obj 44 293 outlet;
#X obj 196 291 outlet;
#X text 196 311 element;
#X text 30 315 remaining list;
#X obj 101 107 t b a;
#X obj 82 209 list split 1;
#X text 93 149 random list index;
#X connect 0 0 10 0;
#X connect 1 0 2 1;
#X connect 2 0 3 0;
#X connect 2 1 11 0;
#X connect 3 0 6 0;
#X connect 4 0 2 0;
#X connect 4 1 0 0;
#X connect 5 0 4 0;
#X connect 10 0 1 0;
#X connect 10 1 1 1;
#X connect 11 0 7 0;
#X connect 11 1 3 1;
#X restore 56 56 pd get_random_element;
#X obj 36 89 route bang;
#X obj 56 30 t a b;
#X obj 113 222 outlet;
#X obj 56 -5 route list;
#X text 166 139 add element to new list;
#X text 154 39 get a random element;
#X text 30 106 repeat until;
#X text 13 119 remainder is empty;
#X text 173 -5 (c)2010 grrrr.org;
#X text 173 -21 list-permute;
#X connect 0 0 8 0;
#X connect 1 0 7 0;
#X connect 2 0 3 0;
#X connect 2 0 1 1;
#X connect 3 0 2 1;
#X connect 4 0 5 0;
#X connect 4 1 2 0;
#X connect 5 0 1 0;
#X connect 5 1 4 0;
#X connect 6 0 4 0;
#X connect 6 1 2 1;
#X connect 8 0 6 0;
#X connect 8 1 7 0;
#X restore 68 217 pd list-permute;
#X msg 70 137 add2 \$1;
#X msg 90 116 set;
#N canvas 0 0 450 300 range-generator 0;
#X obj 48 90 until;
#X obj 94 130 f;
#X obj 124 113 + 1;
#X msg 109 87 0;
#X obj 83 64 t f b;
#X obj 94 154 outlet;
#X floatatom 83 45 5 0 0 0 - - -, f 5;
#X obj 83 25 inlet;
#X connect 0 0 1 0;
#X connect 1 0 2 0;
#X connect 1 0 5 0;
#X connect 2 0 1 1;
#X connect 3 0 1 1;
#X connect 4 0 0 0;
#X connect 4 1 3 0;
#X connect 6 0 4 0;
#X connect 7 0 6 0;
#X restore 70 77 pd range-generator;
#X msg 68 158 1 2 3 4 5 6 7 8 9 10 11 12 13;
#X obj 51 56 t b f b;
#X obj 70 96 + 1;
#X obj 238 254 outlet;
#N canvas 894 107 450 346 list2message 0;
#X obj 55 26 inlet;
#X obj 55 148 outlet;
#X obj 55 45 t a b;
#X obj 55 64 drip;
#X obj 55 83 prepend;
#X obj 55 102 prepend set;
#X obj 55 121 t b a;
#X msg 113 139 6 3 4 9 12 2 10 11 5 13 1 7 8;
#X connect 0 0 2 0;
#X connect 2 0 3 0;
#X connect 2 1 4 1;
#X connect 3 0 4 0;
#X connect 4 0 5 0;
#X connect 5 0 6 0;
#X connect 6 0 1 0;
#X connect 6 0 7 0;
#X connect 6 1 1 0;
#X connect 6 1 7 0;
#X connect 7 0 4 1;
#X restore 238 234 pd list2message;
#X text 69 275 get a list at the first outlet or attach a message box
to the second outlet;
#X obj 68 254 outlet;
#X connect 0 0 6 0;
#X connect 1 0 9 0;
#X connect 1 0 11 0;
#X connect 2 0 5 0;
#X connect 3 0 5 0;
#X connect 4 0 7 0;
#X connect 5 0 1 0;
#X connect 6 0 5 0;
#X connect 6 1 4 0;
#X connect 6 2 3 0;
#X connect 7 0 2 0;
#X connect 9 0 8 0;
#X restore 1401 31 pd generate-permutation;
#X msg 1401 50 6 3 4 9 12 2 10 11 5 13 1 7 8;
#X msg 1401 11 13;
#X msg 1429 12 64;
#X msg 1365 99 S O S;
#N canvas 257 176 1216 677 harmonizer-4voices(sig-transplist-vol) 0
;
#X obj 59 341 *~;
#X obj 145 277 line~;
#X floatatom 145 166 0 0 0 0 - - -;
#X obj 145 251 pack 0 200;
#X obj 15 266 /;
#X obj 92 205 * 0.001;
#X obj 1014 339 line~;
#X obj 59 361 +~;
#X obj 15 377 cos~;
#X obj 15 396 *~;
#X obj 15 456 +~;
#X obj 85 342 wrap~;
#X obj 130 359 *~;
#X obj 130 398 +~;
#X obj 85 419 cos~;
#X obj 85 439 *~;
#X obj 52 224 t b f;
#X floatatom 15 286 6 0 0 0 - - -, f 6;
#X obj 15 339 -~ 0.5;
#X obj 15 358 *~ 0.5;
#X obj 85 361 -~ 0.5;
#X obj 85 400 *~ 0.5;
#X obj 15 208 - 1;
#X obj 15 227 * -1;
#X text 171 165 <--window (msec);
#X text 55 276 tape head;
#X obj 15 305 phasor~;
#X text 1016 265 delay;
#X text 1016 279 (msec);
#X obj 145 188 max 1;
#X text 56 289 rotation freq;
#X floatatom 15 133 0 0 0 0 - - -;
#X obj 15 171 exp;
#X floatatom 15 190 6 0 0 0 - - -, f 6;
#X obj 15 152 * 0.05776;
#X text 49 129 <-- transposition;
#X text 92 142 (halftones);
#X text 58 184 speed;
#X text 57 197 change;
#X obj 85 322 +~ 0.5;
#X obj 358 494 +~;
#X obj 130 422 vd~ harmonizer-del;
#X obj 59 380 vd~ harmonizer-del;
#X obj 358 547 outlet~;
#X obj 319 341 *~;
#X obj 405 277 line~;
#X floatatom 405 166 0 0 0 0 - - -;
#X obj 405 251 pack 0 200;
#X obj 275 266 /;
#X obj 352 205 * 0.001;
#X obj 319 361 +~;
#X obj 275 377 cos~;
#X obj 275 396 *~;
#X obj 275 456 +~;
#X obj 345 342 wrap~;
#X obj 390 359 *~;
#X obj 390 398 +~;
#X obj 345 419 cos~;
#X obj 345 439 *~;
#X obj 312 224 t b f;
#X floatatom 275 286 6 0 0 0 - - -, f 6;
#X obj 275 339 -~ 0.5;
#X obj 275 358 *~ 0.5;
#X obj 345 361 -~ 0.5;
#X obj 345 400 *~ 0.5;
#X obj 275 208 - 1;
#X obj 275 227 * -1;
#X text 432 165 <--window (msec);
#X text 315 276 tape head;
#X obj 275 305 phasor~;
#X obj 405 188 max 1;
#X text 316 289 rotation freq;
#X floatatom 275 133 0 0 0 0 - - -;
#X obj 275 171 exp;
#X floatatom 275 190 6 0 0 0 - - -, f 6;
#X obj 275 152 * 0.05776;
#X text 309 129 <-- transposition;
#X text 352 142 (halftones);
#X text 318 184 speed;
#X text 317 197 change;
#X obj 345 322 +~ 0.5;
#X obj 390 422 vd~ harmonizer-del;
#X obj 319 380 vd~ harmonizer-del;
#X obj 591 341 *~;
#X obj 677 277 line~;
#X floatatom 677 166 0 0 0 0 - - -;
#X obj 677 251 pack 0 200;
#X obj 547 266 /;
#X obj 624 205 * 0.001;
#X obj 591 361 +~;
#X obj 547 377 cos~;
#X obj 547 396 *~;
#X obj 547 456 +~;
#X obj 617 342 wrap~;
#X obj 662 359 *~;
#X obj 662 398 +~;
#X obj 617 419 cos~;
#X obj 617 439 *~;
#X obj 584 224 t b f;
#X floatatom 547 286 6 0 0 0 - - -, f 6;
#X obj 547 339 -~ 0.5;
#X obj 547 358 *~ 0.5;
#X obj 617 361 -~ 0.5;
#X obj 617 400 *~ 0.5;
#X obj 547 208 - 1;
#X obj 547 227 * -1;
#X text 703 165 <--window (msec);
#X text 587 276 tape head;
#X obj 547 305 phasor~;
#X obj 677 188 max 1;
#X text 588 289 rotation freq;
#X floatatom 547 133 0 0 0 0 - - -;
#X obj 547 171 exp;
#X floatatom 547 190 6 0 0 0 - - -, f 6;
#X obj 547 152 * 0.05776;
#X text 581 129 <-- transposition;
#X text 624 142 (halftones);
#X text 590 184 speed;
#X text 589 197 change;
#X obj 617 322 +~ 0.5;
#X obj 662 422 vd~ harmonizer-del;
#X obj 591 380 vd~ harmonizer-del;
#X obj 851 341 *~;
#X obj 937 277 line~;
#X floatatom 937 166 0 0 0 0 - - -;
#X obj 937 251 pack 0 200;
#X obj 807 266 /;
#X obj 884 205 * 0.001;
#X obj 851 361 +~;
#X obj 807 377 cos~;
#X obj 807 396 *~;
#X obj 807 456 +~;
#X obj 877 342 wrap~;
#X obj 922 359 *~;
#X obj 922 398 +~;
#X obj 877 419 cos~;
#X obj 877 439 *~;
#X obj 844 224 t b f;
#X floatatom 807 286 6 0 0 0 - - -, f 6;
#X obj 807 339 -~ 0.5;
#X obj 807 358 *~ 0.5;
#X obj 877 361 -~ 0.5;
#X obj 877 400 *~ 0.5;
#X obj 807 208 - 1;
#X obj 807 227 * -1;
#X text 964 165 <--window (msec);
#X text 847 276 tape head;
#X obj 807 305 phasor~;
#X obj 937 188 max 1;
#X text 848 289 rotation freq;
#X floatatom 807 111 0 0 0 0 - - -;
#X obj 807 171 exp;
#X floatatom 807 190 6 0 0 0 - - -, f 6;
#X obj 807 152 * 0.05776;
#X text 841 111 <-- transposition;
#X text 867 122 (halftones);
#X text 850 184 speed;
#X text 849 197 change;
#X obj 877 322 +~ 0.5;
#X obj 922 422 vd~ harmonizer-del;
#X obj 851 380 vd~ harmonizer-del;
#X obj 20 18 inlet~;
#X obj 252 16 inlet;
#X obj 20 49 delwrite~ harmonizer-del 5000;
#X obj 252 38 unpack 0 0 0 0;
#X msg 937 81 25;
#X msg 677 114 25;
#X msg 145 107 25;
#X msg 405 112 25;
#X obj 1014 299 loadbang;
#X msg 1014 319 0 200;
#X obj 1091 498 line~;
#X obj 358 516 *~;
#X obj 1090 188 vsl 15 40 0 1 0 0 empty empty empty 0 -9 0 10 -258049
-1 -1 0 1;
#X obj 1140 215 loadbang;
#X msg 1091 477 \$1 20;
#X obj 1112 233 > 0;
#X obj 1112 253 tgl 15 0 empty empty empty 17 7 0 10 -262144 -1 -1
0 1;
#X obj 1112 270 switch~;
#X msg 1140 237 0;
#X obj 1090 32 inlet;
#X connect 0 0 7 0;
#X connect 1 0 0 1;
#X connect 1 0 12 1;
#X connect 2 0 29 0;
#X connect 3 0 1 0;
#X connect 4 0 17 0;
#X connect 5 0 16 0;
#X connect 6 0 7 1;
#X connect 6 0 13 1;
#X connect 6 0 56 1;
#X connect 6 0 50 1;
#X connect 6 0 89 1;
#X connect 6 0 95 1;
#X connect 6 0 128 1;
#X connect 6 0 134 1;
#X connect 7 0 42 0;
#X connect 8 0 9 0;
#X connect 9 0 10 0;
#X connect 10 0 40 0;
#X connect 11 0 12 0;
#X connect 11 0 20 0;
#X connect 12 0 13 0;
#X connect 13 0 41 0;
#X connect 14 0 15 0;
#X connect 15 0 10 1;
#X connect 16 0 4 0;
#X connect 16 1 4 1;
#X connect 17 0 26 0;
#X connect 18 0 19 0;
#X connect 19 0 8 0;
#X connect 20 0 21 0;
#X connect 21 0 14 0;
#X connect 22 0 23 0;
#X connect 23 0 4 0;
#X connect 26 0 0 0;
#X connect 26 0 18 0;
#X connect 26 0 39 0;
#X connect 29 0 5 0;
#X connect 29 0 3 0;
#X connect 31 0 34 0;
#X connect 32 0 33 0;
#X connect 33 0 22 0;
#X connect 34 0 32 0;
#X connect 39 0 11 0;
#X connect 40 0 172 0;
#X connect 41 0 15 1;
#X connect 42 0 9 1;
#X connect 44 0 50 0;
#X connect 45 0 44 1;
#X connect 45 0 55 1;
#X connect 46 0 70 0;
#X connect 47 0 45 0;
#X connect 48 0 60 0;
#X connect 49 0 59 0;
#X connect 50 0 82 0;
#X connect 51 0 52 0;
#X connect 52 0 53 0;
#X connect 53 0 40 0;
#X connect 54 0 55 0;
#X connect 54 0 63 0;
#X connect 55 0 56 0;
#X connect 56 0 81 0;
#X connect 57 0 58 0;
#X connect 58 0 53 1;
#X connect 59 0 48 0;
#X connect 59 1 48 1;
#X connect 60 0 69 0;
#X connect 61 0 62 0;
#X connect 62 0 51 0;
#X connect 63 0 64 0;
#X connect 64 0 57 0;
#X connect 65 0 66 0;
#X connect 66 0 48 0;
#X connect 69 0 44 0;
#X connect 69 0 61 0;
#X connect 69 0 80 0;
#X connect 70 0 49 0;
#X connect 70 0 47 0;
#X connect 72 0 75 0;
#X connect 73 0 74 0;
#X connect 74 0 65 0;
#X connect 75 0 73 0;
#X connect 80 0 54 0;
#X connect 81 0 58 1;
#X connect 82 0 52 1;
#X connect 83 0 89 0;
#X connect 84 0 83 1;
#X connect 84 0 94 1;
#X connect 85 0 109 0;
#X connect 86 0 84 0;
#X connect 87 0 99 0;
#X connect 88 0 98 0;
#X connect 89 0 121 0;
#X connect 90 0 91 0;
#X connect 91 0 92 0;
#X connect 92 0 40 1;
#X connect 93 0 94 0;
#X connect 93 0 102 0;
#X connect 94 0 95 0;
#X connect 95 0 120 0;
#X connect 96 0 97 0;
#X connect 97 0 92 1;
#X connect 98 0 87 0;
#X connect 98 1 87 1;
#X connect 99 0 108 0;
#X connect 100 0 101 0;
#X connect 101 0 90 0;
#X connect 102 0 103 0;
#X connect 103 0 96 0;
#X connect 104 0 105 0;
#X connect 105 0 87 0;
#X connect 108 0 83 0;
#X connect 108 0 100 0;
#X connect 108 0 119 0;
#X connect 109 0 88 0;
#X connect 109 0 86 0;
#X connect 111 0 114 0;
#X connect 112 0 113 0;
#X connect 113 0 104 0;
#X connect 114 0 112 0;
#X connect 119 0 93 0;
#X connect 120 0 97 1;
#X connect 121 0 91 1;
#X connect 122 0 128 0;
#X connect 123 0 122 1;
#X connect 123 0 133 1;
#X connect 124 0 148 0;
#X connect 125 0 123 0;
#X connect 126 0 138 0;
#X connect 127 0 137 0;
#X connect 128 0 160 0;
#X connect 129 0 130 0;
#X connect 130 0 131 0;
#X connect 131 0 40 1;
#X connect 132 0 133 0;
#X connect 132 0 141 0;
#X connect 133 0 134 0;
#X connect 134 0 159 0;
#X connect 135 0 136 0;
#X connect 136 0 131 1;
#X connect 137 0 126 0;
#X connect 137 1 126 1;
#X connect 138 0 147 0;
#X connect 139 0 140 0;
#X connect 140 0 129 0;
#X connect 141 0 142 0;
#X connect 142 0 135 0;
#X connect 143 0 144 0;
#X connect 144 0 126 0;
#X connect 147 0 122 0;
#X connect 147 0 139 0;
#X connect 147 0 158 0;
#X connect 148 0 127 0;
#X connect 148 0 125 0;
#X connect 150 0 153 0;
#X connect 151 0 152 0;
#X connect 152 0 143 0;
#X connect 153 0 151 0;
#X connect 158 0 132 0;
#X connect 159 0 136 1;
#X connect 160 0 130 1;
#X connect 161 0 163 0;
#X connect 162 0 164 0;
#X connect 164 0 31 0;
#X connect 164 0 167 0;
#X connect 164 1 72 0;
#X connect 164 1 168 0;
#X connect 164 2 111 0;
#X connect 164 2 166 0;
#X connect 164 3 165 0;
#X connect 164 3 150 0;
#X connect 165 0 124 0;
#X connect 166 0 85 0;
#X connect 167 0 2 0;
#X connect 168 0 46 0;
#X connect 169 0 170 0;
#X connect 170 0 6 0;
#X connect 171 0 172 1;
#X connect 172 0 43 0;
#X connect 173 0 175 0;
#X connect 173 0 176 0;
#X connect 174 0 179 0;
#X connect 175 0 171 0;
#X connect 176 0 177 0;
#X connect 177 0 178 0;
#X connect 179 0 177 0;
#X connect 180 0 173 0;
#X restore 107 755 pd harmonizer-4voices(sig-transplist-vol);
#X obj 356 701 vsl 15 40 0 1 0 0 empty empty empty 0 -9 0 10 -258049
-1 -1 0 1;
#X text 737 71 aoife 4 22 map(3) \, breathing(22);
#X floatatom 607 635 5 0 0 0 - - -, f 5;
#X floatatom 532 637 5 0 0 0 - - -, f 5;
#X obj 393 694 / 100;
#X msg 198 728 1.234 4.567 -1.345 6.59;
#X msg 196 703 -24 -22 -20 -18;
#X floatatom 393 714 5 0 0 0 - - -, f 5;
#X msg 566 602 0.06 0.92;
#X msg 234 653 -10 -8 -4 -2;
#X msg 546 586 0 1;
#X msg 198 587 10 11 12 13;
#X msg 225 631 -2 -1 1 2;
#X msg 393 733 \$1 20;
#X obj 393 753 line~;
#X obj 1222 303 vsl 15 40 0 1 0 0 empty empty empty 0 -9 0 10 -258049
-1 -1 2223 1;
#X obj 991 333 bng 15 250 50 0 empty empty empty 17 7 0 10 -262144
-1 -1;
#X obj 991 295 r nano1R;
#X obj 991 314 select 1;
#X text 25 122 mozart: with harmonizer -10 -8 -4 -2?;
#N canvas 0 21 1366 747 mozart-harp(bang-basenote-modul-vol) 0;
#X msg 182 422 0;
#X floatatom 262 410 5 0 0 0 - - -, f 5;
#X obj 140 436 *~;
#X obj 262 389 expr 44100 / ($f1 * 1.09545) * 0.025;
#X msg 155 402 1;
#X obj 262 367 mtof;
#X obj 182 401 del;
#X obj 223 345 t b b f;
#X obj 262 430 t f f;
#X obj 289 452 sig~;
#X text 278 193 midi notes;
#X text 373 199 can't get past 76;
#X text 346 409 delay length sets pitch;
#X text 304 366 converts midi notes to hz;
#X text 352 422 comment;
#X obj 289 491 *~ 0.95;
#X obj 139 507 delwrite~ harp1 1000;
#X obj 289 471 vd~ harp1;
#X obj 134 174 random 10;
#X obj 198 133 random 10;
#X obj 237 187 +;
#X obj 160 199 +;
#X floatatom 237 208 5 0 0 0 - - -, f 5;
#X floatatom 170 230 5 0 0 0 - - -, f 5;
#X obj 163 44 t b b b f;
#X floatatom 380 80 5 0 0 0 - - -, f 5;
#X obj 380 58 gauss 1;
#X obj 287 61 t f f b;
#X obj 342 111 *;
#X obj 278 133 +;
#X floatatom 278 170 5 0 0 0 - - -, f 5;
#X obj 163 23 f;
#X floatatom 215 6 5 0 0 0 - - -, f 5;
#X obj 81 6 bng 15 250 50 0 empty empty empty 17 7 0 10 -262144 -1
-1;
#X obj 278 153 int, f 4;
#X obj 310 87 * 0.02;
#X obj 1103 596 vsl 15 40 0 1 0 0 empty empty empty 0 -9 0 10 -258049
-1 -1 2223 1;
#X msg 1103 646 \$1 20;
#X obj 1103 668 line~;
#X obj 1073 698 *~;
#X msg 960 416 0;
#X floatatom 1040 404 5 0 0 0 - - -, f 5;
#X obj 918 430 *~;
#X obj 1040 383 expr 44100 / ($f1 * 1.09545) * 0.025;
#X msg 933 396 1;
#X obj 1040 361 mtof;
#X obj 960 395 del;
#X obj 1001 339 t b b f;
#X obj 1040 424 t f f;
#X obj 1067 446 sig~;
#X text 1124 403 delay length sets pitch;
#X text 1082 360 converts midi notes to hz;
#X text 1130 416 comment;
#X obj 1067 485 *~ 0.95;
#X msg 574 427 0;
#X floatatom 654 415 5 0 0 0 - - -, f 5;
#X obj 532 441 *~;
#X obj 654 394 expr 44100 / ($f1 * 1.09545) * 0.025;
#X msg 547 407 1;
#X obj 654 372 mtof;
#X obj 574 406 del;
#X obj 615 350 t b b f;
#X obj 654 435 t f f;
#X obj 681 457 sig~;
#X text 738 414 delay length sets pitch;
#X text 696 371 converts midi notes to hz;
#X text 744 427 comment;
#X obj 681 496 *~ 0.95;
#X obj 533 511 delwrite~ harp2 1000;
#X obj 681 476 vd~ harp2;
#X obj 919 500 delwrite~ harp3 1000;
#X obj 1067 465 vd~ harp3;
#X obj 532 282 +~;
#X obj 927 280 +~;
#X obj 238 265 t f b;
#X obj 265 307 del;
#X obj 223 324 f;
#X obj 140 265 +~;
#X obj 630 269 t f b;
#X obj 657 311 del;
#X obj 615 328 f;
#X obj 1013 258 t f b;
#X obj 1040 300 del;
#X obj 998 317 f;
#X msg 1369 389 0;
#X floatatom 1449 377 5 0 0 0 - - -, f 5;
#X obj 1327 403 *~;
#X obj 1449 356 expr 44100 / ($f1 * 1.09545) * 0.025;
#X msg 1342 369 1;
#X obj 1449 334 mtof;
#X obj 1369 368 del;
#X obj 1410 312 t b b f;
#X obj 1449 397 t f f;
#X obj 1476 419 sig~;
#X text 1533 376 delay length sets pitch;
#X text 1491 333 converts midi notes to hz;
#X text 1539 389 comment;
#X obj 1476 458 *~ 0.95;
#X obj 1328 473 delwrite~ harp4 1000;
#X obj 1476 438 vd~ harp4;
#X obj 1325 270 +~;
#X obj 1424 229 t f b;
#X obj 1451 251 random 100;
#X obj 1451 271 del;
#X obj 1409 288 f;
#X obj 265 287 random 20;
#X obj 657 291 random 20;
#X obj 1040 280 random 20;
#X obj 615 193 + 5;
#X obj 1074 725 outlet~;
#X obj 95 -54 inlet;
#X obj 211 -50 inlet;
#X obj 1173 -19 inlet;
#X obj 750 -29 inlet;
#N canvas 374 391 312 208 bypass 0;
#X obj 82 23 hsl 40 15 0 1 0 0 empty empty empty -2 -8 0 10 -260097
-1 -1 2119 1;
#X floatatom 93 38 5 0 0 0 - - -, f 5;
#X obj 79 79 vsl 15 40 0 1 0 0 empty empty empty 0 -9 0 10 -262144
-1 -1 2119 1;
#X obj 28 38 - 1;
#X obj 28 57 abs;
#X obj 28 79 vsl 15 40 0 1 0 0 empty empty empty 0 -9 0 10 -262144
-1 -1 1781 1;
#X obj 79 4 inlet;
#X obj 79 164 outlet;
#X obj 28 164 outlet;
#X msg 79 124 \$1 50;
#X obj 220 141 line~;
#X obj 220 165 outlet~;
#X obj 169 165 outlet~;
#X obj 169 141 line~;
#X obj 79 143 line;
#X msg 28 124 \$1 50;
#X obj 28 143 line;
#X connect 0 0 1 0;
#X connect 0 0 2 0;
#X connect 0 0 3 0;
#X connect 2 0 9 0;
#X connect 3 0 4 0;
#X connect 4 0 5 0;
#X connect 5 0 15 0;
#X connect 6 0 0 0;
#X connect 9 0 14 0;
#X connect 9 0 10 0;
#X connect 10 0 11 0;
#X connect 13 0 12 0;
#X connect 14 0 7 0;
#X connect 15 0 16 0;
#X connect 15 0 13 0;
#X connect 16 0 8 0;
#X restore 748 41 pd bypass;
#X obj 750 16 hsl 40 15 0 1 0 0 empty empty empty -2 -8 0 10 -260097
-1 -1 2119 1;
#X obj 765 62 vsl 15 40 0 1 0 0 empty empty empty 0 -9 0 10 -262144
-1 -1 2119 1;
#X obj 748 62 vsl 15 40 0 1 0 0 empty empty empty 0 -9 0 10 -262144
-1 -1 1781 1;
#X obj 702 57 *~;
#X obj 809 57 *~;
#X obj 750 123 +~;
#X floatatom 812 38 5 0 0 0 - - -, f 5;
#X floatatom 630 78 5 0 0 0 - - -, f 5;
#X obj 510 18 mtof;
#X obj 554 37 * 2;
#X floatatom 484 97 5 0 0 0 - - -, f 5;
#X obj 469 142 *;
#X floatatom 458 -33 5 0 0 0 - - -, f 5;
#X floatatom 469 164 5 0 0 0 - - -, f 5;
#X floatatom 458 10 5 0 0 0 - - -, f 5;
#X obj 486 119 t b f;
#X obj 638 105 osc~;
#X obj 836 107 pink~;
#X obj 484 75 expr 0.9+($f1*0.09);
#X obj 458 -12 expr 0.9+($f1*0.1);
#X obj 638 127 *~ 0.1;
#X obj 836 129 *~ 0.1;
#X obj 274 -8 + 20;
#X obj 274 -30 * 40;
#X connect 0 0 2 1;
#X connect 1 0 8 0;
#X connect 2 0 16 0;
#X connect 3 0 1 0;
#X connect 4 0 2 1;
#X connect 5 0 3 0;
#X connect 6 0 0 0;
#X connect 7 0 4 0;
#X connect 7 1 6 0;
#X connect 7 2 5 0;
#X connect 8 0 6 1;
#X connect 8 1 9 0;
#X connect 9 0 17 0;
#X connect 15 0 16 0;
#X connect 15 0 39 0;
#X connect 17 0 15 0;
#X connect 18 0 21 0;
#X connect 19 0 20 0;
#X connect 20 0 21 1;
#X connect 20 0 22 0;
#X connect 21 0 23 0;
#X connect 22 0 78 0;
#X connect 23 0 74 0;
#X connect 24 1 18 0;
#X connect 24 2 19 0;
#X connect 24 3 27 0;
#X connect 25 0 28 1;
#X connect 26 0 25 0;
#X connect 27 0 29 0;
#X connect 27 1 35 0;
#X connect 27 2 26 0;
#X connect 28 0 29 1;
#X connect 29 0 34 0;
#X connect 30 0 20 1;
#X connect 30 0 81 0;
#X connect 30 0 108 0;
#X connect 30 0 123 0;
#X connect 31 0 24 0;
#X connect 32 0 31 1;
#X connect 33 0 31 0;
#X connect 34 0 30 0;
#X connect 35 0 28 0;
#X connect 36 0 37 0;
#X connect 37 0 38 0;
#X connect 38 0 39 1;
#X connect 39 0 109 0;
#X connect 40 0 42 1;
#X connect 41 0 48 0;
#X connect 42 0 70 0;
#X connect 43 0 41 0;
#X connect 44 0 42 1;
#X connect 45 0 43 0;
#X connect 46 0 40 0;
#X connect 47 0 44 0;
#X connect 47 1 46 0;
#X connect 47 2 45 0;
#X connect 48 0 46 1;
#X connect 48 1 49 0;
#X connect 49 0 71 0;
#X connect 53 0 70 0;
#X connect 53 0 39 0;
#X connect 54 0 56 1;
#X connect 55 0 62 0;
#X connect 56 0 68 0;
#X connect 57 0 55 0;
#X connect 58 0 56 1;
#X connect 59 0 57 0;
#X connect 60 0 54 0;
#X connect 61 0 58 0;
#X connect 61 1 60 0;
#X connect 61 2 59 0;
#X connect 62 0 60 1;
#X connect 62 1 63 0;
#X connect 63 0 69 0;
#X connect 67 0 68 0;
#X connect 67 0 39 0;
#X connect 69 0 67 0;
#X connect 71 0 53 0;
#X connect 72 0 56 0;
#X connect 72 0 73 0;
#X connect 73 0 42 0;
#X connect 73 0 100 0;
#X connect 74 0 76 1;
#X connect 74 1 105 0;
#X connect 75 0 76 0;
#X connect 76 0 7 0;
#X connect 77 0 2 0;
#X connect 77 0 72 0;
#X connect 78 0 80 1;
#X connect 78 1 106 0;
#X connect 79 0 80 0;
#X connect 80 0 61 0;
#X connect 81 0 83 1;
#X connect 81 1 107 0;
#X connect 82 0 83 0;
#X connect 83 0 47 0;
#X connect 84 0 86 1;
#X connect 85 0 92 0;
#X connect 86 0 98 0;
#X connect 87 0 85 0;
#X connect 88 0 86 1;
#X connect 89 0 87 0;
#X connect 90 0 84 0;
#X connect 91 0 88 0;
#X connect 91 1 90 0;
#X connect 91 2 89 0;
#X connect 92 0 90 1;
#X connect 92 1 93 0;
#X connect 93 0 99 0;
#X connect 97 0 98 0;
#X connect 97 0 39 0;
#X connect 99 0 97 0;
#X connect 100 0 86 0;
#X connect 101 0 104 1;
#X connect 101 1 102 0;
#X connect 102 0 103 0;
#X connect 103 0 104 0;
#X connect 104 0 91 0;
#X connect 105 0 75 0;
#X connect 106 0 79 0;
#X connect 107 0 82 0;
#X connect 108 0 101 0;
#X connect 110 0 33 0;
#X connect 111 0 127 0;
#X connect 111 0 138 0;
#X connect 112 0 36 0;
#X connect 113 0 115 0;
#X connect 114 0 117 0;
#X connect 114 1 116 0;
#X connect 114 2 118 1;
#X connect 114 3 119 0;
#X connect 115 0 114 0;
#X connect 115 0 121 0;
#X connect 115 0 133 0;
#X connect 118 0 120 0;
#X connect 119 0 120 1;
#X connect 120 0 77 0;
#X connect 122 0 131 0;
#X connect 123 0 124 0;
#X connect 124 0 122 0;
#X connect 125 0 130 0;
#X connect 126 0 128 0;
#X connect 127 0 134 0;
#X connect 128 0 15 1;
#X connect 128 0 67 1;
#X connect 128 0 53 1;
#X connect 128 0 97 1;
#X connect 129 0 126 0;
#X connect 130 0 126 0;
#X connect 130 1 126 1;
#X connect 131 0 135 0;
#X connect 132 0 136 0;
#X connect 133 0 125 0;
#X connect 134 0 129 0;
#X connect 135 0 118 0;
#X connect 136 0 119 1;
#X connect 137 0 32 0;
#X connect 138 0 137 0;
#X restore 991 351 pd mozart-harp(bang-basenote-modul-vol);
#X obj 1068 304 vsl 15 40 0 1 0 0 empty empty empty 0 -9 0 10 -258049
-1 -1 2672 1;
#X obj 1145 303 vsl 15 40 0 1 0 0 empty empty empty 0 -9 0 10 -258049
-1 -1 2119 1;
#X obj 1074 279 r nano1;
#X obj 1145 281 r nano1K;
#X obj 1490 577 vsl 15 50 0 1 0 0 empty empty empty 0 -9 0 10 -262144
-1 -1 0 1;
#X obj 1452 577 vsl 15 50 10 1000 0 0 empty empty empty 0 -9 0 10 -262144
-1 -1 200 1;
#X msg 1222 280 1;
#X obj 1227 213 random 100;
#X obj 1227 232 / 100;
#X floatatom 1227 252 5 0 0 0 - - -, f 5;
#X obj 1227 177 select 1;
#X obj 1227 196 bng 15 250 50 0 empty empty empty 17 7 0 10 -262144
-1 -1;
#X obj 1227 158 r nano1S;
#X obj 1148 219 random 100;
#X obj 1148 238 / 100;
#X floatatom 1148 258 5 0 0 0 - - -, f 5;
#X obj 1148 183 select 1;
#X obj 1148 202 bng 15 250 50 0 empty empty empty 17 7 0 10 -262144
-1 -1;
#X obj 1148 164 r nano1M;
#X text 23 131 hyejin Nr. 47 (book1 \, page 166pdf);
#X msg 39 647 1;
#X msg 70 647 0;
#X msg 39 670 \$1 20;
#X obj 39 690 line~;
#X obj 24 710 *~;
#X msg 124 647 1;
#X msg 155 647 0;
#X msg 124 670 \$1 20;
#X obj 124 690 line~;
#X obj 109 710 *~;
#X obj 66 600 bng 15 250 50 0 empty empty empty 17 7 0 10 -262144 -1
-1;
#X obj 124 601 bng 15 250 50 0 empty empty empty 17 7 0 10 -262144
-1 -1;
#X obj 678 142 send~ kontakt1;
#X obj 708 120 send~ kontakt2;
#X obj 119 552 receive~ kontakt1;
#X msg 330 592 1;
#X obj 393 549 receive~ mic1;
#X msg 408 594 \$1 20;
#X obj 408 614 line~;
#X obj 393 634 *~;
#X obj 378 785 *~;
#X text 308 786 poltergeist;
#X obj 107 784 +~;
#X text 139 783 harmonizer-clean;
#X obj 395 179 hradio 15 0 0 4 empty empty empty 0 -8 0 10 -262144
-1 -1 3;
#X obj 395 199 + 1;
#X floatatom 395 221 5 0 0 0 - - -, f 5;
#X msg 321 248 0 200 andrea-1-\$1.wav 0;
#X msg 322 297 0 200 andrea-2-\$1.wav 0;
#X obj 444 226 bng 15 250 50 0 empty empty empty 17 7 0 10 -262144
-1 -1;
#X text 464 226 sentplay;
#X text 397 164 ANDREA RECORDINGS;
#X obj 917 725 +~;
#X text 943 727 all;
#X obj 1452 729 delwrite~ del1 1000;
#X obj 1513 560 unpack;
#X text 1572 534 jolana w2w;
#X msg 1513 531 250 0.4, f 8;
#X msg 246 676 -4 4 6 10;
#X obj 310 560 r nano1K;
#X obj 1452 531 * 1000;
#X obj 1422 593 +~;
#X obj 1419 735 +~;
#X obj 1434 684 vd~ del1;
#X msg 1452 637 \$1 20;
#X obj 1452 659 line~;
#X msg 1490 669 \$1 20;
#X obj 1490 691 line~;
#X obj 1452 708 *~;
#X obj 825 140 receive~ mic1;
#X text 685 156 pegatina negra \, micros 1;
#X obj 595 569 loadbang;
#X obj 412 569 tgl 15 0 empty empty empty 17 7 0 10 -262144 -1 -1 0
1;
#X obj 22 552 receive~ mic1;
#X obj 487 752 vsl 15 40 0 1 0 0 empty empty empty 0 -9 0 10 -258049
-1 -1 184 1;
#X msg 487 800 \$1 20;
#X obj 487 820 line~;
#X obj 472 841 *~;
#X obj 472 710 receive~ mic1;
#X obj 1443 506 r nano4;
#X obj 1500 509 r nano4K;
#X obj 487 730 r nano5K;
#X obj 573 752 vsl 15 40 0 1 0 0 empty empty empty 0 -9 0 10 -258049
-1 -1 0 1;
#X msg 573 800 \$1 20;
#X obj 573 820 line~;
#X obj 558 841 *~;
#X obj 558 710 receive~ mic2;
#X obj 658 752 vsl 15 40 0 1 0 0 empty empty empty 0 -9 0 10 -258049
-1 -1 0 1;
#X msg 658 800 \$1 20;
#X obj 658 820 line~;
#X obj 643 841 *~;
#X obj 767 752 vsl 15 40 0 1 0 0 empty empty empty 0 -9 0 10 -258049
-1 -1 3317 1;
#X msg 767 800 \$1 20;
#X obj 767 820 line~;
#X obj 752 841 *~;
#X obj 643 710 receive~ kontakt1;
#X obj 752 710 receive~ kontakt2;
#X obj 954 644 +~;
#X text 978 642 middleones;
#X obj 1110 706 +~;
#X text 1134 704 stage;
#X obj 658 730 r nano7K;
#X obj 767 730 r nano8K;
#X obj 1559 286 hsl 40 15 0 1 0 0 empty empty empty -2 -8 0 10 -260097
-1 -1 0 1;
#X obj 1377 287 bng 15 250 50 0 empty empty empty 17 7 0 10 -262144
-1 -1;
#N canvas -26 227 1366 722 w2w_interactive(sig-play-rec-mats-mix) 0
;
#X obj 326 292 bng 15 250 50 0 empty empty empty 17 7 0 10 -262144
-1 -1;
#X obj 268 292 bng 15 250 50 0 empty empty empty 17 7 0 10 -262144
-1 -1;
#X obj 211 292 bng 15 250 50 0 empty empty empty 17 7 0 10 -262144
-1 -1;
#N canvas 127 271 1366 722 wav3wav(play-stop-generate-ratio-iters-orig-mat_folder)
0;
#X obj 138 241 shell;
#X obj 138 222 route list;
#X obj 159 20 inlet;
#X obj 196 20 inlet;
#X obj 138 203 list;
#X obj 233 20 inlet;
#X obj 111 20 inlet;
#X floatatom 196 106 5 0 0 0 - - -, f 5;
#X floatatom 159 114 5 1 1e+10 0 - - -, f 5;
#X obj 111 59 t b b;
#X symbolatom 233 103 10 0 0 0 - - -, f 10;
#X obj 233 40 symbol;
#X obj 279 21 inlet;
#X obj 279 40 symbol;
#X symbolatom 279 84 10 0 0 0 - - -, f 10;
#X text 384 61 WORKSPACE PATH;
#X obj 159 157 pack 0 0 s s s;
#X msg 159 178 \$5wav3wav -f 100 -r \$1 -i \$2 -s \$5\$3 -m \$5\$4/
;
#X obj 348 140 symbol;
#X msg 348 76 /home/afr/Desktop/cage-songbooks/;
#X obj 285 390 t b b;
#X msg 285 420 start;
#X obj 330 498 readsf~;
#X msg 72 481 stop;
#X msg 119 331 0;
#X msg 165 331 1;
#X obj 165 358 tgl 15 0 empty empty empty 17 7 0 10 -262144 -1 -1 1
1;
#X obj 113 373 spigot;
#X obj 165 260 bng 15 250 50 0 empty empty empty 17 7 0 10 -262144
-1 -1;
#X text 182 260 done bang;
#X msg 34 40 play;
#X obj 34 358 bng 15 250 50 0 empty empty empty 17 7 0 10 -262144 -1
-1;
#X msg 111 39 generate;
#X obj 34 20 inlet;
#X obj 72 20 inlet;
#X msg 72 40 stop;
#X obj 330 518 outlet~;
#X obj 138 307 s \$0-wav3wav-canvas;
#X text 175 39 -r;
#X text 206 37 -i;
#X text 240 55 -s;
#X text 284 56 -m;
#X obj 183 406 select 0;
#X msg 183 448 color \$1 22;
#X obj 183 467 s \$0-wav3wav-canvas;
#X msg 183 426 14;
#X msg 228 425 16;
#X obj 111 97 t b b;
#X obj 330 413 symbol;
#X msg 330 434 open \$1;
#X msg 363 223 symbol \$5\$3_reconstruction.wav;
#X msg 138 287 label \$1;
#X obj 402 332 cnv 15 352 16 empty \$0-wav3wav-canvas /home/afr/Desktop/cage-songbooks/jolana-85.wav_reconstruction_sequence.txt
2 2 0 6 -24198 -1 0;
#X text 497 364 path to original;
#X obj 471 498 readsf~;
#X obj 471 518 outlet~;
#X msg 504 388 symbol \$5\$3;
#X obj 471 407 symbol;
#X msg 471 426 open \$1;
#X obj 140 551 s wav3wav_toggle;
#X obj 609 240 print;
#X connect 0 0 51 0;
#X connect 0 0 60 0;
#X connect 0 1 28 0;
#X connect 1 0 0 0;
#X connect 2 0 8 0;
#X connect 3 0 7 0;
#X connect 4 0 1 0;
#X connect 5 0 11 0;
#X connect 6 0 32 0;
#X connect 7 0 16 1;
#X connect 8 0 16 0;
#X connect 9 0 47 0;
#X connect 9 1 7 0;
#X connect 9 1 10 0;
#X connect 9 1 19 0;
#X connect 9 1 14 0;
#X connect 10 0 16 2;
#X connect 11 0 10 0;
#X connect 12 0 13 0;
#X connect 13 0 14 0;
#X connect 14 0 16 3;
#X connect 16 0 17 0;
#X connect 16 0 50 0;
#X connect 16 0 56 0;
#X connect 17 0 4 1;
#X connect 18 0 16 4;
#X connect 19 0 18 0;
#X connect 20 0 21 0;
#X connect 20 1 48 0;
#X connect 20 1 57 0;
#X connect 21 0 22 0;
#X connect 21 0 54 0;
#X connect 22 0 36 0;
#X connect 23 0 22 0;
#X connect 23 0 54 0;
#X connect 24 0 26 0;
#X connect 25 0 26 0;
#X connect 26 0 27 1;
#X connect 26 0 42 0;
#X connect 26 0 59 0;
#X connect 27 0 20 0;
#X connect 28 0 25 0;
#X connect 30 0 31 0;
#X connect 31 0 27 0;
#X connect 32 0 9 0;
#X connect 33 0 30 0;
#X connect 34 0 35 0;
#X connect 35 0 23 0;
#X connect 42 0 45 0;
#X connect 42 1 46 0;
#X connect 43 0 44 0;
#X connect 45 0 43 0;
#X connect 46 0 43 0;
#X connect 47 0 4 0;
#X connect 47 1 8 0;
#X connect 47 1 24 0;
#X connect 48 0 49 0;
#X connect 49 0 22 0;
#X connect 50 0 48 1;
#X connect 51 0 37 0;
#X connect 54 0 55 0;
#X connect 56 0 57 1;
#X connect 57 0 58 0;
#X connect 58 0 54 0;
#X coords 0 -1 1 1 353 35 1 402 317;
#X restore 211 308 pd wav3wav(play-stop-generate-ratio-iters-orig-mat_folder)
;
#X obj 460 260 t b b s;
#X msg 680 336 jolana;
#N canvas 374 391 312 208 bypass 0;
#X obj 82 23 hsl 40 15 0 1 0 0 empty empty empty -2 -8 0 10 -260097
-1 -1 0 1;
#X floatatom 93 38 5 0 0 0 - - -, f 5;
#X obj 79 79 vsl 15 40 0 1 0 0 empty empty empty 0 -9 0 10 -262144
-1 -1 0 1;
#X obj 28 38 - 1;
#X obj 28 57 abs;
#X obj 28 79 vsl 15 40 0 1 0 0 empty empty empty 0 -9 0 10 -262144
-1 -1 3900 1;
#X obj 79 4 inlet;
#X obj 79 164 outlet;
#X obj 28 164 outlet;
#X msg 79 124 \$1 50;
#X obj 220 141 line~;
#X obj 220 165 outlet~;
#X obj 169 165 outlet~;
#X obj 169 141 line~;
#X obj 79 143 line;
#X msg 28 124 \$1 50;
#X obj 28 143 line;
#X connect 0 0 1 0;
#X connect 0 0 2 0;
#X connect 0 0 3 0;
#X connect 2 0 9 0;
#X connect 3 0 4 0;
#X connect 4 0 5 0;
#X connect 5 0 15 0;
#X connect 6 0 0 0;
#X connect 9 0 14 0;
#X connect 9 0 10 0;
#X connect 10 0 11 0;
#X connect 13 0 12 0;
#X connect 14 0 7 0;
#X connect 15 0 16 0;
#X connect 15 0 13 0;
#X connect 16 0 8 0;
#X restore 382 367 pd bypass;
#X obj 385 349 hsl 40 15 0 1 0 0 empty empty empty -2 -8 0 10 -260097
-1 -1 0 1;
#X obj 399 388 vsl 15 40 0 1 0 0 empty empty empty 0 -9 0 10 -262144
-1 -1 0 1;
#X obj 382 388 vsl 15 40 0 1 0 0 empty empty empty 0 -9 0 10 -262144
-1 -1 3900 1;
#X obj 336 383 *~;
#X obj 443 383 *~;
#X obj 336 423 +~;
#X obj 211 359 *~ 0.4;
#X obj 399 221 writesf~;
#N canvas 781 361 346 169 integcount(0_+1_-1) 0;
#X obj 31 9 inlet;
#X obj 87 9 inlet;
#X obj 124 9 inlet;
#X obj 92 133 outlet;
#X obj 43 65 f;
#X obj 58 104 - 1;
#X obj 87 50 bng 15 250 50 0 empty empty empty 17 7 0 10 -262144 -1
-1;
#X obj 124 50 bng 15 250 50 0 empty empty empty 17 7 0 10 -262144 -1
-1;
#X msg 31 48 0;
#X floatatom 92 82 5 0 0 0 - - -, f 5;
#X obj 12 65 f;
#X obj 27 104 + 1;
#X msg 31 30 restart;
#X msg 87 30 + 1;
#X msg 124 30 - 1;
#X connect 0 0 12 0;
#X connect 1 0 13 0;
#X connect 2 0 14 0;
#X connect 4 0 5 0;
#X connect 4 0 9 0;
#X connect 4 0 11 0;
#X connect 5 0 4 1;
#X connect 6 0 10 0;
#X connect 7 0 4 0;
#X connect 8 0 10 0;
#X connect 9 0 3 0;
#X connect 10 0 11 0;
#X connect 10 0 5 0;
#X connect 10 0 9 0;
#X connect 11 0 10 1;
#X connect 12 0 8 0;
#X connect 13 0 6 0;
#X connect 14 0 7 0;
#X restore 522 141 pd integcount(0_+1_-1);
#X obj 522 162 nbx 5 14 -1e+37 1e+37 0 0 \$0-blobrec-id empty empty
0 -8 0 10 -262144 -1 -1 85 256 0;
#X obj 507 179 f;
#X obj 507 98 bng 15 250 50 0 empty empty start 17 7 0 10 -258049 -1
-1;
#X obj 507 117 t b b;
#X obj 459 155 bng 15 250 50 0 empty empty stop 17 7 0 10 -258049 -1
-1;
#X msg 405 170 stop;
#X obj 414 64 tgl 15 0 empty empty empty 17 7 0 10 -262144 -1 -1 0
1;
#X obj 414 81 select 1;
#X msg 413 197 open jolana-\$1.wav \, start;
#X obj 460 238 symbol;
#X obj 580 108 bng 15 250 50 0 empty empty empty 17 7 0 10 -262144
-1 -1;
#X msg 414 107 \$1 20;
#X obj 414 127 line~;
#X obj 399 148 *~;
#X obj 459 120 del 20;
#X text 586 122 reset counter;
#X msg 507 221 symbol jolana-\$1.wav;
#X obj 460 218 del 400;
#X obj 105 69 inlet~;
#X obj 204 69 inlet;
#X obj 255 73 inlet;
#X obj 796 116 inlet;
#X obj 697 87 inlet;
#X obj 336 445 outlet~;
#X obj 616 388 r wav3wav_toggle;
#X obj 616 410 outlet;
#X msg 680 295 aoife;
#X msg 678 257 violin;
#X msg 441 289 500;
#X msg 384 289 10;
#X connect 0 0 3 2;
#X connect 1 0 3 1;
#X connect 2 0 3 0;
#X connect 3 0 13 0;
#X connect 3 1 11 1;
#X connect 4 0 0 0;
#X connect 4 1 45 0;
#X connect 4 1 44 0;
#X connect 4 2 3 5;
#X connect 5 0 3 6;
#X connect 6 0 9 0;
#X connect 6 1 8 0;
#X connect 6 2 10 1;
#X connect 6 3 11 0;
#X connect 7 0 6 0;
#X connect 10 0 12 0;
#X connect 11 0 12 1;
#X connect 12 0 39 0;
#X connect 13 0 10 0;
#X connect 15 0 16 0;
#X connect 16 0 17 1;
#X connect 17 0 24 0;
#X connect 17 0 32 0;
#X connect 18 0 19 0;
#X connect 19 0 17 0;
#X connect 19 1 15 1;
#X connect 20 0 21 0;
#X connect 20 0 33 0;
#X connect 21 0 14 0;
#X connect 22 0 23 0;
#X connect 22 0 27 0;
#X connect 23 0 18 0;
#X connect 23 1 30 0;
#X connect 24 0 14 0;
#X connect 25 0 4 0;
#X connect 26 0 15 0;
#X connect 27 0 28 0;
#X connect 28 0 29 1;
#X connect 29 0 14 0;
#X connect 30 0 20 0;
#X connect 32 0 25 1;
#X connect 33 0 25 0;
#X connect 34 0 29 0;
#X connect 35 0 2 0;
#X connect 36 0 22 0;
#X connect 37 0 7 0;
#X connect 38 0 3 6;
#X connect 40 0 41 0;
#X connect 42 0 3 6;
#X connect 43 0 3 6;
#X connect 44 0 3 4;
#X connect 45 0 3 3;
#X restore 1317 307 pd w2w_interactive(sig-play-rec-mats-mix);
#X msg 1521 241 jolana;
#X msg 1509 216 aoife;
#X obj 1438 265 r record;
#X obj 1377 245 r play;
#X obj 1438 288 tgl 15 0 empty empty empty 17 7 0 10 -262144 -1 -1
0 1;
#X obj 1377 267 select 1;
#X obj 1560 328 tgl 15 0 empty empty empty 17 7 0 10 -262144 -1 -1
1 1;
#X obj 573 730 r nano6K;
#X text 1398 571 del in;
#X text 1428 755 del out;
#X msg 212 609 4 7 9 -12;
#X text 955 99 interface gewechselt;
#X text 956 118 complexe module weggemacht;
#X text 956 137 kritische module verkapselt;
#X text 954 157 3 mal getestet;
#X obj 623 363 +~;
#X obj 819 336 bng 15 250 50 0 empty empty empty 17 7 0 10 -262144
-1 -1;
#X obj 642 195 hradio 15 0 0 2 empty empty empty 0 -8 0 10 -262144
-1 -1 1;
#X text 677 194 AOIFE MAP(seagulls-forest);
#X obj 642 215 sel 0;
#X obj 642 237 bng 15 250 50 0 empty empty empty 17 7 0 10 -262144
-1 -1;
#X obj 707 232 bng 15 250 50 0 empty empty empty 17 7 0 10 -262144
-1 -1;
#N canvas 173 189 450 515 playwav[start-dur-filename-fade[-STOP 0;
#X obj 123 38 inlet;
#X obj 132 329 outlet~;
#X obj 181 329 outlet;
#X text 88 330 signal;
#X obj 132 288 readsf~;
#X obj 132 125 pack f s;
#X obj 123 106 * 44100;
#X obj 70 148 * 1000;
#X obj 70 167 del;
#X msg 70 186 stop;
#X obj 287 291 line~;
#X obj 132 308 *~;
#X msg 132 144 open \$2 \$1 \, start;
#X text 71 16 list <START*> <DUR*> <FILENAME*> \, <FADE*> *in seconds
;
#X obj 123 57 unpack f f s f;
#X obj 332 242 + 1;
#X obj 189 165 -;
#X obj 189 227 del;
#X msg 230 244 0, f 2;
#X obj 287 261 pack 0 0;
#X obj 138 177 bng 15 250 50 0 empty empty empty 17 7 0 10 -262144
-1 -1;
#X obj 332 148 * 1000;
#X obj 236 219 del 5;
#X msg 138 260 0 5;
#X text 161 262 1 first set to 0;
#X text 240 202 2 then set to red volume;
#X text 178 180 3 finally reset to 0;
#X text 225 328 finished BEFORE SPECIFIED LENGTH;
#X msg 287 236 1;
#X obj 372 56 inlet;
#X obj 372 78 bng 15 250 50 0 empty empty empty 17 7 0 10 -262144 -1
-1;
#X connect 0 0 14 0;
#X connect 4 0 11 0;
#X connect 4 1 2 0;
#X connect 5 0 12 0;
#X connect 6 0 5 0;
#X connect 7 0 8 0;
#X connect 7 0 16 0;
#X connect 8 0 9 0;
#X connect 9 0 4 0;
#X connect 10 0 11 1;
#X connect 11 0 1 0;
#X connect 12 0 4 0;
#X connect 12 0 20 0;
#X connect 14 0 6 0;
#X connect 14 1 7 0;
#X connect 14 2 5 1;
#X connect 14 3 21 0;
#X connect 15 0 19 1;
#X connect 16 0 17 0;
#X connect 17 0 18 0;
#X connect 18 0 19 0;
#X connect 19 0 10 0;
#X connect 20 0 22 0;
#X connect 20 0 23 0;
#X connect 21 0 15 0;
#X connect 21 0 16 1;
#X connect 22 0 28 0;
#X connect 23 0 10 0;
#X connect 28 0 19 0;
#X connect 29 0 30 0;
#X connect 30 0 9 0;
#X restore 612 316 pd playwav[start-dur-filename-fade[-STOP;
#X obj 800 298 bng 15 250 50 0 empty empty empty 17 7 0 10 -262144
-1 -1;
#X obj 504 340 bng 15 250 50 0 empty empty empty 17 7 0 10 -262144
-1 -1;
#N canvas 173 189 450 515 playwav[start-dur-filename-fade[-STOP 0;
#X obj 123 38 inlet;
#X obj 132 329 outlet~;
#X obj 181 329 outlet;
#X text 88 330 signal;
#X obj 132 288 readsf~;
#X obj 132 125 pack f s;
#X obj 123 106 * 44100;
#X obj 70 148 * 1000;
#X obj 70 167 del;
#X msg 70 186 stop;
#X obj 287 291 line~;
#X obj 132 308 *~;
#X msg 132 144 open \$2 \$1 \, start;
#X text 71 16 list <START*> <DUR*> <FILENAME*> \, <FADE*> *in seconds
;
#X obj 123 57 unpack f f s f;
#X obj 332 242 + 1;
#X obj 189 165 -;
#X obj 189 227 del;
#X msg 230 244 0, f 2;
#X obj 287 261 pack 0 0;
#X obj 138 177 bng 15 250 50 0 empty empty empty 17 7 0 10 -262144
-1 -1;
#X obj 332 148 * 1000;
#X obj 236 219 del 5;
#X msg 138 260 0 5;
#X text 161 262 1 first set to 0;
#X text 240 202 2 then set to red volume;
#X text 178 180 3 finally reset to 0;
#X text 225 328 finished BEFORE SPECIFIED LENGTH;
#X msg 287 236 1;
#X obj 372 56 inlet;
#X obj 372 78 bng 15 250 50 0 empty empty empty 17 7 0 10 -262144 -1
-1;
#X connect 0 0 14 0;
#X connect 4 0 11 0;
#X connect 4 1 2 0;
#X connect 5 0 12 0;
#X connect 6 0 5 0;
#X connect 7 0 8 0;
#X connect 7 0 16 0;
#X connect 8 0 9 0;
#X connect 9 0 4 0;
#X connect 10 0 11 1;
#X connect 11 0 1 0;
#X connect 12 0 4 0;
#X connect 12 0 20 0;
#X connect 14 0 6 0;
#X connect 14 1 7 0;
#X connect 14 2 5 1;
#X connect 14 3 21 0;
#X connect 15 0 19 1;
#X connect 16 0 17 0;
#X connect 17 0 18 0;
#X connect 18 0 19 0;
#X connect 19 0 10 0;
#X connect 20 0 22 0;
#X connect 20 0 23 0;
#X connect 21 0 15 0;
#X connect 21 0 16 1;
#X connect 22 0 28 0;
#X connect 23 0 10 0;
#X connect 28 0 19 0;
#X connect 29 0 30 0;
#X connect 30 0 9 0;
#X restore 297 320 pd playwav[start-dur-filename-fade[-STOP;
#X obj 534 301 bng 15 250 50 0 empty empty empty 17 7 0 10 -262144
-1 -1;
#X obj 515 293 bng 15 250 50 0 empty empty empty 17 7 0 10 -262144
-1 -1;
#N canvas 173 189 450 515 playwav[start-dur-filename-fade[-STOP 0;
#X obj 123 38 inlet;
#X obj 132 329 outlet~;
#X obj 181 329 outlet;
#X text 88 330 signal;
#X obj 132 288 readsf~;
#X obj 132 125 pack f s;
#X obj 123 106 * 44100;
#X obj 70 148 * 1000;
#X obj 70 167 del;
#X msg 70 186 stop;
#X obj 287 291 line~;
#X obj 132 308 *~;
#X msg 132 144 open \$2 \$1 \, start;
#X text 71 16 list <START*> <DUR*> <FILENAME*> \, <FADE*> *in seconds
;
#X obj 123 57 unpack f f s f;
#X obj 332 242 + 1;
#X obj 189 165 -;
#X obj 189 227 del;
#X msg 230 244 0, f 2;
#X obj 287 261 pack 0 0;
#X obj 138 177 bng 15 250 50 0 empty empty empty 17 7 0 10 -262144
-1 -1;
#X obj 332 148 * 1000;
#X obj 236 219 del 5;
#X msg 138 260 0 5;
#X text 161 262 1 first set to 0;
#X text 240 202 2 then set to red volume;
#X text 178 180 3 finally reset to 0;
#X text 225 328 finished BEFORE SPECIFIED LENGTH;
#X msg 287 236 1;
#X obj 372 56 inlet;
#X obj 372 78 bng 15 250 50 0 empty empty empty 17 7 0 10 -262144 -1
-1;
#X connect 0 0 14 0;
#X connect 4 0 11 0;
#X connect 4 1 2 0;
#X connect 5 0 12 0;
#X connect 6 0 5 0;
#X connect 7 0 8 0;
#X connect 7 0 16 0;
#X connect 8 0 9 0;
#X connect 9 0 4 0;
#X connect 10 0 11 1;
#X connect 11 0 1 0;
#X connect 12 0 4 0;
#X connect 12 0 20 0;
#X connect 14 0 6 0;
#X connect 14 1 7 0;
#X connect 14 2 5 1;
#X connect 14 3 21 0;
#X connect 15 0 19 1;
#X connect 16 0 17 0;
#X connect 17 0 18 0;
#X connect 18 0 19 0;
#X connect 19 0 10 0;
#X connect 20 0 22 0;
#X connect 20 0 23 0;
#X connect 21 0 15 0;
#X connect 21 0 16 1;
#X connect 22 0 28 0;
#X connect 23 0 10 0;
#X connect 28 0 19 0;
#X connect 29 0 30 0;
#X connect 30 0 9 0;
#X restore 308 273 pd playwav[start-dur-filename-fade[-STOP;
#X obj 545 254 bng 15 250 50 0 empty empty empty 17 7 0 10 -262144
-1 -1;
#X obj 914 292 bng 15 250 50 0 empty empty empty 17 7 0 10 -262144
-1 -1;
#N canvas 173 189 450 515 playwav[start-dur-filename-fade[-STOP 0;
#X obj 123 38 inlet;
#X obj 132 329 outlet~;
#X obj 181 329 outlet;
#X text 88 330 signal;
#X obj 132 288 readsf~;
#X obj 132 125 pack f s;
#X obj 123 106 * 44100;
#X obj 70 148 * 1000;
#X obj 70 167 del;
#X msg 70 186 stop;
#X obj 287 291 line~;
#X obj 132 308 *~;
#X msg 132 144 open \$2 \$1 \, start;
#X text 71 16 list <START*> <DUR*> <FILENAME*> \, <FADE*> *in seconds
;
#X obj 123 57 unpack f f s f;
#X obj 332 242 + 1;
#X obj 189 165 -;
#X obj 189 227 del;
#X msg 230 244 0, f 2;
#X obj 287 261 pack 0 0;
#X obj 138 177 bng 15 250 50 0 empty empty empty 17 7 0 10 -262144
-1 -1;
#X obj 332 148 * 1000;
#X obj 236 219 del 5;
#X msg 138 260 0 5;
#X text 161 262 1 first set to 0;
#X text 240 202 2 then set to red volume;
#X text 178 180 3 finally reset to 0;
#X text 225 328 finished BEFORE SPECIFIED LENGTH;
#X msg 287 236 1;
#X obj 372 56 inlet;
#X obj 372 78 bng 15 250 50 0 empty empty empty 17 7 0 10 -262144 -1
-1;
#X connect 0 0 14 0;
#X connect 4 0 11 0;
#X connect 4 1 2 0;
#X connect 5 0 12 0;
#X connect 6 0 5 0;
#X connect 7 0 8 0;
#X connect 7 0 16 0;
#X connect 8 0 9 0;
#X connect 9 0 4 0;
#X connect 10 0 11 1;
#X connect 11 0 1 0;
#X connect 12 0 4 0;
#X connect 12 0 20 0;
#X connect 14 0 6 0;
#X connect 14 1 7 0;
#X connect 14 2 5 1;
#X connect 14 3 21 0;
#X connect 15 0 19 1;
#X connect 16 0 17 0;
#X connect 17 0 18 0;
#X connect 18 0 19 0;
#X connect 19 0 10 0;
#X connect 20 0 22 0;
#X connect 20 0 23 0;
#X connect 21 0 15 0;
#X connect 21 0 16 1;
#X connect 22 0 28 0;
#X connect 23 0 10 0;
#X connect 28 0 19 0;
#X connect 29 0 30 0;
#X connect 30 0 9 0;
#X restore 707 272 pd playwav[start-dur-filename-fade[-STOP;
#X obj 944 253 bng 15 250 50 0 empty empty empty 17 7 0 10 -262144
-1 -1;
#X msg 707 250 1340 80 arkadiaEinlass.wav 10;
#X msg 1490 192 violin;
#X msg 612 294 80 60 arkadiaEinlass.wav 10;
#X obj 1327 830 +~;
#X obj 927 582 +~;
#X obj 1285 283 receive~ mic2;
#X obj 231 442 random 7;
#X obj 231 464 route 0 1 2 3 4 5 6 7;
#X obj 220 485 bng 15 250 50 0 empty empty empty 17 7 0 10 -262144
-1 -1;
#X obj 238 485 bng 15 250 50 0 empty empty empty 17 7 0 10 -262144
-1 -1;
#X obj 256 485 bng 15 250 50 0 empty empty empty 17 7 0 10 -262144
-1 -1;
#X obj 274 485 bng 15 250 50 0 empty empty empty 17 7 0 10 -262144
-1 -1;
#X obj 292 486 bng 15 250 50 0 empty empty empty 17 7 0 10 -262144
-1 -1;
#X obj 310 486 bng 15 250 50 0 empty empty empty 17 7 0 10 -262144
-1 -1;
#X obj 328 486 bng 15 250 50 0 empty empty empty 17 7 0 10 -262144
-1 -1;
#X obj 346 486 bng 14 250 50 0 empty empty empty 17 7 0 10 -262144
-1 -1;
#X obj 230 420 bng 15 250 50 0 empty empty empty 17 7 0 10 -262144
-1 -1;
#X obj 240 349 random 100;
#X obj 240 368 / 100;
#X floatatom 240 388 5 0 0 0 - - -, f 5;
#X obj 240 313 select 1;
#X obj 240 332 bng 15 250 50 0 empty empty empty 17 7 0 10 -262144
-1 -1;
#X obj 240 294 r nano1M;
#X obj 144 450 random 100;
#X obj 144 469 / 100;
#X floatatom 144 489 5 0 0 0 - - -, f 5;
#X obj 144 414 select 1;
#X obj 144 433 bng 15 250 50 0 empty empty empty 17 7 0 10 -262144
-1 -1;
#X obj 144 395 r nano1S;
#X obj 1112 585 +~;
#X text 1075 622 aoife breathing direct line;
#X text 1348 830 aoife breathing w2w;
#X obj 1738 416 vsl 15 40 0 1 0 0 empty empty empty 0 -9 0 10 -258049
-1 -1 0 1;
#X msg 1738 464 \$1 20;
#X obj 1738 484 line~;
#X obj 1723 505 *~;
#X obj 1146 866 *~ 0.5;
#X obj 1279 343 *~ 4;
#X text 949 581 mozart harmonizer;
#X obj 1114 668 +~;
#X text 1146 666 jolana punkte harmonizer;
#X obj 1112 500 +~;
#X text 1134 500 aoife map;
#X obj 685 342 *~ 2;
#X obj 912 494 +~;
#X text 939 491 jolana duschamp;
#X obj 814 557 +~;
#X text 839 556 dalila AM;
#X obj 676 402 receive~ mic1;
#X obj 636 429 lop~ 200;
#X obj 640 493 +~;
#X obj 736 430 hip~ 5000;
#N canvas 173 189 450 515 playwav[start-dur-filename-fade[-STOP 0;
#X obj 123 38 inlet;
#X obj 132 329 outlet~;
#X obj 181 329 outlet;
#X text 88 330 signal;
#X obj 132 288 readsf~;
#X obj 132 125 pack f s;
#X obj 123 106 * 44100;
#X obj 70 148 * 1000;
#X obj 70 167 del;
#X msg 70 186 stop;
#X obj 287 291 line~;
#X obj 132 308 *~;
#X msg 132 144 open \$2 \$1 \, start;
#X text 71 16 list <START*> <DUR*> <FILENAME*> \, <FADE*> *in seconds
;
#X obj 123 57 unpack f f s f;
#X obj 332 242 + 1;
#X obj 189 165 -;
#X obj 189 227 del;
#X msg 230 244 0, f 2;
#X obj 287 261 pack 0 0;
#X obj 138 177 bng 15 250 50 0 empty empty empty 17 7 0 10 -262144
-1 -1;
#X obj 332 148 * 1000;
#X obj 236 219 del 5;
#X msg 138 260 0 5;
#X text 161 262 1 first set to 0;
#X text 240 202 2 then set to red volume;
#X text 178 180 3 finally reset to 0;
#X text 225 328 finished BEFORE SPECIFIED LENGTH;
#X msg 287 236 1;
#X obj 372 56 inlet;
#X obj 372 78 bng 15 250 50 0 empty empty empty 17 7 0 10 -262144 -1
-1;
#X connect 0 0 14 0;
#X connect 4 0 11 0;
#X connect 4 1 2 0;
#X connect 5 0 12 0;
#X connect 6 0 5 0;
#X connect 7 0 8 0;
#X connect 7 0 16 0;
#X connect 8 0 9 0;
#X connect 9 0 4 0;
#X connect 10 0 11 1;
#X connect 11 0 1 0;
#X connect 12 0 4 0;
#X connect 12 0 20 0;
#X connect 14 0 6 0;
#X connect 14 1 7 0;
#X connect 14 2 5 1;
#X connect 14 3 21 0;
#X connect 15 0 19 1;
#X connect 16 0 17 0;
#X connect 17 0 18 0;
#X connect 18 0 19 0;
#X connect 19 0 10 0;
#X connect 20 0 22 0;
#X connect 20 0 23 0;
#X connect 21 0 15 0;
#X connect 21 0 16 1;
#X connect 22 0 28 0;
#X connect 23 0 10 0;
#X connect 28 0 19 0;
#X connect 29 0 30 0;
#X connect 30 0 9 0;
#X restore 386 422 pd playwav[start-dur-filename-fade[-STOP;
#X obj 644 521 *~ 4;
#X obj 471 468 *~ 0.6;
#X obj 623 402 bng 15 250 50 0 empty empty empty 17 7 0 10 -262144
-1 -1;
#X msg 386 400 15 200 jackhammer2.wav 5;
#X floatatom 1997 792 5 0 0 0 - - -, f 5;
#X obj 2240 714 vsl 15 50 0 1 0 0 empty empty empty 0 -9 0 10 -262144
-1 -1 4508 1;
#X obj 2118 714 vsl 15 50 0 1 0 0 empty empty empty 0 -9 0 10 -262144
-1 -1 294 1;
#N canvas 247 78 469 560 density-manager(sig-upBoost-downBoost) 0;
#X obj 45 43 inlet~;
#X text 40 23 signal;
#X obj 166 41 inlet;
#X text 160 16 up-boost(0..1);
#X obj 261 43 inlet;
#X text 255 18 down-boost(0..1);
#X obj 241 166 loadbang;
#X msg 241 188 1;
#X obj 241 228 f;
#X obj 84 218 nbx 5 14 0 1e+37 0 0 empty empty empty 0 -8 0 10 -262144
-1 -1 0.559542 256 0;
#X obj 45 125 delta;
#X obj 45 68 env~ 16384;
#X obj 45 106 line;
#X msg 45 87 \$1 200;
#X obj 84 199 +;
#X obj 241 208 metro 50;
#X floatatom 301 188 5 0 0 0 - - -, f 5;
#X obj 45 145 moses 0;
#X obj 261 82 vsl 15 50 0 1 0 0 empty empty empty 0 -9 0 10 -262144
-1 -1 4508 1;
#X obj 167 91 vsl 15 50 0 1 0 0 empty empty empty 0 -9 0 10 -262144
-1 -1 294 1;
#X obj 83 265 outlet;
#X obj 277 228 - 0.5;
#X obj 301 166 expr int($f1*-400)+401;
#X obj 84 165 expr $f1*($f2*3+1);
#X connect 0 0 11 0;
#X connect 2 0 19 0;
#X connect 4 0 18 0;
#X connect 6 0 7 0;
#X connect 7 0 15 0;
#X connect 8 0 14 0;
#X connect 8 0 9 0;
#X connect 9 0 14 1;
#X connect 9 0 20 0;
#X connect 9 0 21 0;
#X connect 10 0 17 0;
#X connect 11 0 13 0;
#X connect 12 0 10 0;
#X connect 13 0 12 0;
#X connect 14 0 9 0;
#X connect 15 0 8 0;
#X connect 16 0 15 1;
#X connect 17 1 23 0;
#X connect 18 0 22 0;
#X connect 19 0 23 1;
#X connect 21 0 8 1;
#X connect 22 0 16 0;
#X connect 23 0 14 0;
#X restore 1997 771 pd density-manager(sig-upBoost-downBoost);
#X obj 2170 738 unpack;
#N canvas 257 176 1216 677 harmonizer-4voices(sig-transplist-vol) 0
;
#X obj 59 341 *~;
#X obj 145 277 line~;
#X floatatom 145 166 0 0 0 0 - - -;
#X obj 145 251 pack 0 200;
#X obj 15 266 /;
#X obj 92 205 * 0.001;
#X obj 1014 339 line~;
#X obj 59 361 +~;
#X obj 15 377 cos~;
#X obj 15 396 *~;
#X obj 15 456 +~;
#X obj 85 342 wrap~;
#X obj 130 359 *~;
#X obj 130 398 +~;
#X obj 85 419 cos~;
#X obj 85 439 *~;
#X obj 52 224 t b f;
#X floatatom 15 286 6 0 0 0 - - -, f 6;
#X obj 15 339 -~ 0.5;
#X obj 15 358 *~ 0.5;
#X obj 85 361 -~ 0.5;
#X obj 85 400 *~ 0.5;
#X obj 15 208 - 1;
#X obj 15 227 * -1;
#X text 171 165 <--window (msec);
#X text 55 276 tape head;
#X obj 15 305 phasor~;
#X text 1016 265 delay;
#X text 1016 279 (msec);
#X obj 145 188 max 1;
#X text 56 289 rotation freq;
#X floatatom 15 133 0 0 0 0 - - -;
#X obj 15 171 exp;
#X floatatom 15 190 6 0 0 0 - - -, f 6;
#X obj 15 152 * 0.05776;
#X text 49 129 <-- transposition;
#X text 92 142 (halftones);
#X text 58 184 speed;
#X text 57 197 change;
#X obj 85 322 +~ 0.5;
#X obj 358 494 +~;
#X obj 130 422 vd~ harmonizer-del;
#X obj 59 380 vd~ harmonizer-del;
#X obj 358 547 outlet~;
#X obj 319 341 *~;
#X obj 405 277 line~;
#X floatatom 405 166 0 0 0 0 - - -;
#X obj 405 251 pack 0 200;
#X obj 275 266 /;
#X obj 352 205 * 0.001;
#X obj 319 361 +~;
#X obj 275 377 cos~;
#X obj 275 396 *~;
#X obj 275 456 +~;
#X obj 345 342 wrap~;
#X obj 390 359 *~;
#X obj 390 398 +~;
#X obj 345 419 cos~;
#X obj 345 439 *~;
#X obj 312 224 t b f;
#X floatatom 275 286 6 0 0 0 - - -, f 6;
#X obj 275 339 -~ 0.5;
#X obj 275 358 *~ 0.5;
#X obj 345 361 -~ 0.5;
#X obj 345 400 *~ 0.5;
#X obj 275 208 - 1;
#X obj 275 227 * -1;
#X text 432 165 <--window (msec);
#X text 315 276 tape head;
#X obj 275 305 phasor~;
#X obj 405 188 max 1;
#X text 316 289 rotation freq;
#X floatatom 275 133 0 0 0 0 - - -;
#X obj 275 171 exp;
#X floatatom 275 190 6 0 0 0 - - -, f 6;
#X obj 275 152 * 0.05776;
#X text 309 129 <-- transposition;
#X text 352 142 (halftones);
#X text 318 184 speed;
#X text 317 197 change;
#X obj 345 322 +~ 0.5;
#X obj 390 422 vd~ harmonizer-del;
#X obj 319 380 vd~ harmonizer-del;
#X obj 591 341 *~;
#X obj 677 277 line~;
#X floatatom 677 166 0 0 0 0 - - -;
#X obj 677 251 pack 0 200;
#X obj 547 266 /;
#X obj 624 205 * 0.001;
#X obj 591 361 +~;
#X obj 547 377 cos~;
#X obj 547 396 *~;
#X obj 547 456 +~;
#X obj 617 342 wrap~;
#X obj 662 359 *~;
#X obj 662 398 +~;
#X obj 617 419 cos~;
#X obj 617 439 *~;
#X obj 584 224 t b f;
#X floatatom 547 286 6 0 0 0 - - -, f 6;
#X obj 547 339 -~ 0.5;
#X obj 547 358 *~ 0.5;
#X obj 617 361 -~ 0.5;
#X obj 617 400 *~ 0.5;
#X obj 547 208 - 1;
#X obj 547 227 * -1;
#X text 703 165 <--window (msec);
#X text 587 276 tape head;
#X obj 547 305 phasor~;
#X obj 677 188 max 1;
#X text 588 289 rotation freq;
#X floatatom 547 133 0 0 0 0 - - -;
#X obj 547 171 exp;
#X floatatom 547 190 6 0 0 0 - - -, f 6;
#X obj 547 152 * 0.05776;
#X text 581 129 <-- transposition;
#X text 624 142 (halftones);
#X text 590 184 speed;
#X text 589 197 change;
#X obj 617 322 +~ 0.5;
#X obj 662 422 vd~ harmonizer-del;
#X obj 591 380 vd~ harmonizer-del;
#X obj 851 341 *~;
#X obj 937 277 line~;
#X floatatom 937 166 0 0 0 0 - - -;
#X obj 937 251 pack 0 200;
#X obj 807 266 /;
#X obj 884 205 * 0.001;
#X obj 851 361 +~;
#X obj 807 377 cos~;
#X obj 807 396 *~;
#X obj 807 456 +~;
#X obj 877 342 wrap~;
#X obj 922 359 *~;
#X obj 922 398 +~;
#X obj 877 419 cos~;
#X obj 877 439 *~;
#X obj 844 224 t b f;
#X floatatom 807 286 6 0 0 0 - - -, f 6;
#X obj 807 339 -~ 0.5;
#X obj 807 358 *~ 0.5;
#X obj 877 361 -~ 0.5;
#X obj 877 400 *~ 0.5;
#X obj 807 208 - 1;
#X obj 807 227 * -1;
#X text 964 165 <--window (msec);
#X text 847 276 tape head;
#X obj 807 305 phasor~;
#X obj 937 188 max 1;
#X text 848 289 rotation freq;
#X floatatom 807 111 0 0 0 0 - - -;
#X obj 807 171 exp;
#X floatatom 807 190 6 0 0 0 - - -, f 6;
#X obj 807 152 * 0.05776;
#X text 841 111 <-- transposition;
#X text 867 122 (halftones);
#X text 850 184 speed;
#X text 849 197 change;
#X obj 877 322 +~ 0.5;
#X obj 922 422 vd~ harmonizer-del;
#X obj 851 380 vd~ harmonizer-del;
#X obj 20 18 inlet~;
#X obj 252 16 inlet;
#X obj 20 49 delwrite~ harmonizer-del 5000;
#X obj 252 38 unpack 0 0 0 0;
#X msg 937 81 25;
#X msg 677 114 25;
#X msg 145 107 25;
#X msg 405 112 25;
#X obj 1014 299 loadbang;
#X msg 1014 319 0 200;
#X obj 1091 498 line~;
#X obj 358 516 *~;
#X obj 1090 188 vsl 15 40 0 1 0 0 empty empty empty 0 -9 0 10 -258049
-1 -1 0 1;
#X obj 1140 215 loadbang;
#X msg 1091 477 \$1 20;
#X obj 1112 233 > 0;
#X obj 1112 253 tgl 15 0 empty empty empty 17 7 0 10 -262144 -1 -1
0 1;
#X obj 1112 270 switch~;
#X msg 1140 237 0;
#X obj 1090 32 inlet;
#X connect 0 0 7 0;
#X connect 1 0 0 1;
#X connect 1 0 12 1;
#X connect 2 0 29 0;
#X connect 3 0 1 0;
#X connect 4 0 17 0;
#X connect 5 0 16 0;
#X connect 6 0 7 1;
#X connect 6 0 13 1;
#X connect 6 0 56 1;
#X connect 6 0 50 1;
#X connect 6 0 89 1;
#X connect 6 0 95 1;
#X connect 6 0 128 1;
#X connect 6 0 134 1;
#X connect 7 0 42 0;
#X connect 8 0 9 0;
#X connect 9 0 10 0;
#X connect 10 0 40 0;
#X connect 11 0 12 0;
#X connect 11 0 20 0;
#X connect 12 0 13 0;
#X connect 13 0 41 0;
#X connect 14 0 15 0;
#X connect 15 0 10 1;
#X connect 16 0 4 0;
#X connect 16 1 4 1;
#X connect 17 0 26 0;
#X connect 18 0 19 0;
#X connect 19 0 8 0;
#X connect 20 0 21 0;
#X connect 21 0 14 0;
#X connect 22 0 23 0;
#X connect 23 0 4 0;
#X connect 26 0 0 0;
#X connect 26 0 18 0;
#X connect 26 0 39 0;
#X connect 29 0 5 0;
#X connect 29 0 3 0;
#X connect 31 0 34 0;
#X connect 32 0 33 0;
#X connect 33 0 22 0;
#X connect 34 0 32 0;
#X connect 39 0 11 0;
#X connect 40 0 172 0;
#X connect 41 0 15 1;
#X connect 42 0 9 1;
#X connect 44 0 50 0;
#X connect 45 0 44 1;
#X connect 45 0 55 1;
#X connect 46 0 70 0;
#X connect 47 0 45 0;
#X connect 48 0 60 0;
#X connect 49 0 59 0;
#X connect 50 0 82 0;
#X connect 51 0 52 0;
#X connect 52 0 53 0;
#X connect 53 0 40 0;
#X connect 54 0 55 0;
#X connect 54 0 63 0;
#X connect 55 0 56 0;
#X connect 56 0 81 0;
#X connect 57 0 58 0;
#X connect 58 0 53 1;
#X connect 59 0 48 0;
#X connect 59 1 48 1;
#X connect 60 0 69 0;
#X connect 61 0 62 0;
#X connect 62 0 51 0;
#X connect 63 0 64 0;
#X connect 64 0 57 0;
#X connect 65 0 66 0;
#X connect 66 0 48 0;
#X connect 69 0 44 0;
#X connect 69 0 61 0;
#X connect 69 0 80 0;
#X connect 70 0 49 0;
#X connect 70 0 47 0;
#X connect 72 0 75 0;
#X connect 73 0 74 0;
#X connect 74 0 65 0;
#X connect 75 0 73 0;
#X connect 80 0 54 0;
#X connect 81 0 58 1;
#X connect 82 0 52 1;
#X connect 83 0 89 0;
#X connect 84 0 83 1;
#X connect 84 0 94 1;
#X connect 85 0 109 0;
#X connect 86 0 84 0;
#X connect 87 0 99 0;
#X connect 88 0 98 0;
#X connect 89 0 121 0;
#X connect 90 0 91 0;
#X connect 91 0 92 0;
#X connect 92 0 40 1;
#X connect 93 0 94 0;
#X connect 93 0 102 0;
#X connect 94 0 95 0;
#X connect 95 0 120 0;
#X connect 96 0 97 0;
#X connect 97 0 92 1;
#X connect 98 0 87 0;
#X connect 98 1 87 1;
#X connect 99 0 108 0;
#X connect 100 0 101 0;
#X connect 101 0 90 0;
#X connect 102 0 103 0;
#X connect 103 0 96 0;
#X connect 104 0 105 0;
#X connect 105 0 87 0;
#X connect 108 0 83 0;
#X connect 108 0 100 0;
#X connect 108 0 119 0;
#X connect 109 0 88 0;
#X connect 109 0 86 0;
#X connect 111 0 114 0;
#X connect 112 0 113 0;
#X connect 113 0 104 0;
#X connect 114 0 112 0;
#X connect 119 0 93 0;
#X connect 120 0 97 1;
#X connect 121 0 91 1;
#X connect 122 0 128 0;
#X connect 123 0 122 1;
#X connect 123 0 133 1;
#X connect 124 0 148 0;
#X connect 125 0 123 0;
#X connect 126 0 138 0;
#X connect 127 0 137 0;
#X connect 128 0 160 0;
#X connect 129 0 130 0;
#X connect 130 0 131 0;
#X connect 131 0 40 1;
#X connect 132 0 133 0;
#X connect 132 0 141 0;
#X connect 133 0 134 0;
#X connect 134 0 159 0;
#X connect 135 0 136 0;
#X connect 136 0 131 1;
#X connect 137 0 126 0;
#X connect 137 1 126 1;
#X connect 138 0 147 0;
#X connect 139 0 140 0;
#X connect 140 0 129 0;
#X connect 141 0 142 0;
#X connect 142 0 135 0;
#X connect 143 0 144 0;
#X connect 144 0 126 0;
#X connect 147 0 122 0;
#X connect 147 0 139 0;
#X connect 147 0 158 0;
#X connect 148 0 127 0;
#X connect 148 0 125 0;
#X connect 150 0 153 0;
#X connect 151 0 152 0;
#X connect 152 0 143 0;
#X connect 153 0 151 0;
#X connect 158 0 132 0;
#X connect 159 0 136 1;
#X connect 160 0 130 1;
#X connect 161 0 163 0;
#X connect 162 0 164 0;
#X connect 164 0 31 0;
#X connect 164 0 167 0;
#X connect 164 1 72 0;
#X connect 164 1 168 0;
#X connect 164 2 111 0;
#X connect 164 2 166 0;
#X connect 164 3 165 0;
#X connect 164 3 150 0;
#X connect 165 0 124 0;
#X connect 166 0 85 0;
#X connect 167 0 2 0;
#X connect 168 0 46 0;
#X connect 169 0 170 0;
#X connect 170 0 6 0;
#X connect 171 0 172 1;
#X connect 172 0 43 0;
#X connect 173 0 175 0;
#X connect 173 0 176 0;
#X connect 174 0 179 0;
#X connect 175 0 171 0;
#X connect 176 0 177 0;
#X connect 177 0 178 0;
#X connect 179 0 177 0;
#X connect 180 0 173 0;
#X restore 1711 872 pd harmonizer-4voices(sig-transplist-vol);
#X obj 1960 818 vsl 15 40 0 1 0 0 empty empty empty 0 -9 0 10 -258049
-1 -1 0 1;
#X floatatom 2211 752 5 0 0 0 - - -, f 5;
#X floatatom 2136 754 5 0 0 0 - - -, f 5;
#X obj 1997 811 / 100;
#X msg 1833 848 -24 -22 -20 -18;
#X floatatom 1997 831 5 0 0 0 - - -, f 5;
#X msg 2170 719 0.06 0.92;
#X msg 2150 703 0 1;
#X msg 1997 850 \$1 20;
#X obj 1997 870 line~;
#X obj 1709 849 receive~ kontakt1;
#X msg 1934 709 1;
#X obj 1997 666 receive~ mic1;
#X obj 1982 902 *~;
#X text 1946 932 poltergeist;
#X obj 1914 677 r nano1K;
#X obj 2199 686 loadbang;
#X obj 993 884 +~;
#X text 1018 881 poltergeist;
#X obj 1296 430 vsl 15 40 0 1 0 0 empty empty empty 0 -9 0 10 -258049
-1 -1 0 1;
#X msg 1296 478 \$1 20;
#X obj 1296 498 line~;
#X obj 1281 519 *~;
#X obj 1610 259 r nano3K;
#X obj 388 358 *~ 0.8;
#X obj 326 368 *~ 0.8;
#X text 1492 409 jolana duschamp;
#X obj 1500 426 receive~ mic2;
#X obj 1715 794 receive~ kontakt2;
#X obj 1246 557 +~;
#X text 1275 559 nichi;
#X obj 1204 480 receive~ mic1;
#X obj 1297 395 r nano1K;
#X obj 1738 394 r nano2K;
#X connect 2 0 10 0;
#X connect 2 1 11 0;
#X connect 2 2 12 0;
#X connect 2 3 13 0;
#X connect 2 4 14 0;
#X connect 2 5 15 0;
#X connect 2 6 18 0;
#X connect 2 7 19 0;
#X connect 2 9 99 0;
#X connect 2 10 100 0;
#X connect 3 0 4 0;
#X connect 3 1 5 0;
#X connect 3 2 6 0;
#X connect 3 3 7 0;
#X connect 3 4 8 0;
#X connect 3 5 9 0;
#X connect 17 0 2 0;
#X connect 17 0 22 0;
#X connect 17 0 2 1;
#X connect 17 0 2 2;
#X connect 17 0 2 3;
#X connect 17 0 2 4;
#X connect 17 0 2 5;
#X connect 21 0 20 0;
#X connect 21 0 3 3;
#X connect 21 0 3 5;
#X connect 21 0 3 7;
#X connect 21 0 3 9;
#X connect 21 0 3 11;
#X connect 21 0 3 1;
#X connect 24 0 50 0;
#X connect 25 0 27 2;
#X connect 25 0 48 0;
#X connect 26 0 27 1;
#X connect 26 0 49 0;
#X connect 27 0 24 0;
#X connect 28 0 26 0;
#X connect 28 1 25 0;
#X connect 29 0 30 0;
#X connect 36 0 38 2;
#X connect 38 0 37 0;
#X connect 39 0 38 1;
#X connect 40 1 41 0;
#X connect 42 0 40 0;
#X connect 43 0 40 0;
#X connect 44 0 38 0;
#X connect 45 0 107 0;
#X connect 45 0 109 0;
#X connect 46 0 45 2;
#X connect 50 0 53 0;
#X connect 51 0 45 1;
#X connect 52 0 45 1;
#X connect 53 0 59 0;
#X connect 54 0 28 0;
#X connect 55 0 45 1;
#X connect 56 0 28 0;
#X connect 57 0 45 1;
#X connect 58 0 45 1;
#X connect 59 0 60 0;
#X connect 60 0 107 1;
#X connect 61 0 66 3;
#X connect 62 0 66 0;
#X connect 63 0 64 0;
#X connect 64 0 62 0;
#X connect 67 0 66 1;
#X connect 68 0 66 2;
#X connect 71 0 133 0;
#X connect 72 0 131 0;
#X connect 74 0 75 0;
#X connect 75 0 76 0;
#X connect 77 0 78 0;
#X connect 78 0 74 0;
#X connect 79 0 77 0;
#X connect 80 0 81 0;
#X connect 81 0 82 0;
#X connect 83 0 84 0;
#X connect 84 0 80 0;
#X connect 85 0 83 0;
#X connect 87 0 89 0;
#X connect 88 0 89 0;
#X connect 89 0 90 0;
#X connect 90 0 91 1;
#X connect 91 0 45 0;
#X connect 92 0 94 0;
#X connect 93 0 94 0;
#X connect 94 0 95 0;
#X connect 95 0 96 1;
#X connect 96 0 45 0;
#X connect 97 0 87 0;
#X connect 97 0 93 0;
#X connect 98 0 88 0;
#X connect 98 0 92 0;
#X connect 101 0 96 0;
#X connect 102 0 46 0;
#X connect 103 0 106 0;
#X connect 104 0 105 0;
#X connect 105 0 106 1;
#X connect 106 0 27 0;
#X connect 111 0 112 0;
#X connect 112 0 113 0;
#X connect 113 0 114 0;
#X connect 113 0 115 0;
#X connect 113 0 116 0;
#X connect 114 0 201 0;
#X connect 115 0 198 0;
#X connect 119 0 3 10;
#X connect 119 0 3 8;
#X connect 119 0 3 6;
#X connect 119 0 3 4;
#X connect 119 0 3 2;
#X connect 119 0 3 0;
#X connect 122 0 72 0;
#X connect 122 1 71 0;
#X connect 124 0 122 0;
#X connect 125 0 45 1;
#X connect 126 0 46 0;
#X connect 128 0 135 0;
#X connect 129 0 209 0;
#X connect 129 0 250 1;
#X connect 130 0 129 1;
#X connect 130 0 135 0;
#X connect 131 0 132 0;
#X connect 132 0 130 0;
#X connect 133 0 134 0;
#X connect 134 0 135 1;
#X connect 135 0 121 0;
#X connect 138 0 54 0;
#X connect 139 0 104 0;
#X connect 140 0 91 0;
#X connect 141 0 142 0;
#X connect 142 0 143 0;
#X connect 143 0 144 1;
#X connect 145 0 144 0;
#X connect 146 0 127 0;
#X connect 147 0 71 0;
#X connect 148 0 141 0;
#X connect 149 0 150 0;
#X connect 150 0 151 0;
#X connect 151 0 152 1;
#X connect 153 0 152 0;
#X connect 154 0 155 0;
#X connect 155 0 156 0;
#X connect 156 0 157 1;
#X connect 157 0 119 0;
#X connect 158 0 159 0;
#X connect 159 0 160 0;
#X connect 160 0 161 1;
#X connect 161 0 119 1;
#X connect 162 0 157 0;
#X connect 163 0 161 0;
#X connect 164 0 3 2;
#X connect 164 0 3 4;
#X connect 164 0 3 6;
#X connect 166 0 3 8;
#X connect 166 0 3 10;
#X connect 168 0 154 0;
#X connect 169 0 158 0;
#X connect 170 0 172 4;
#X connect 171 0 172 1;
#X connect 172 1 179 0;
#X connect 173 0 172 3;
#X connect 174 0 172 3;
#X connect 175 0 177 0;
#X connect 176 0 178 0;
#X connect 177 0 172 2;
#X connect 178 0 171 0;
#X connect 180 0 149 0;
#X connect 183 0 45 1;
#X connect 190 0 192 0;
#X connect 192 0 193 0;
#X connect 192 1 194 0;
#X connect 193 0 208 0;
#X connect 194 0 206 0;
#X connect 195 0 188 1;
#X connect 195 1 189 0;
#X connect 196 0 195 1;
#X connect 198 0 294 0;
#X connect 198 1 197 0;
#X connect 199 0 198 1;
#X connect 201 0 293 0;
#X connect 201 1 200 0;
#X connect 202 0 201 1;
#X connect 204 0 249 0;
#X connect 204 1 203 0;
#X connect 205 0 204 1;
#X connect 206 0 204 0;
#X connect 207 0 172 3;
#X connect 208 0 195 0;
#X connect 210 0 3 0;
#X connect 211 0 172 0;
#X connect 211 0 243 0;
#X connect 212 0 213 0;
#X connect 213 0 214 0;
#X connect 213 1 215 0;
#X connect 213 2 216 0;
#X connect 213 3 217 0;
#X connect 213 4 218 0;
#X connect 213 5 219 0;
#X connect 213 6 220 0;
#X connect 213 7 221 0;
#X connect 214 0 57 0;
#X connect 215 0 183 0;
#X connect 216 0 58 0;
#X connect 217 0 55 0;
#X connect 218 0 125 0;
#X connect 219 0 52 0;
#X connect 220 0 51 0;
#X connect 222 0 212 0;
#X connect 223 0 224 0;
#X connect 223 0 222 0;
#X connect 224 0 225 0;
#X connect 224 0 222 0;
#X connect 225 0 222 0;
#X connect 226 0 227 0;
#X connect 226 0 222 0;
#X connect 227 0 223 0;
#X connect 227 0 222 0;
#X connect 228 0 226 0;
#X connect 228 0 222 0;
#X connect 229 0 230 0;
#X connect 230 0 231 0;
#X connect 231 0 46 0;
#X connect 232 0 233 0;
#X connect 233 0 229 0;
#X connect 234 0 232 0;
#X connect 235 0 3 2;
#X connect 235 0 3 4;
#X connect 235 0 3 6;
#X connect 238 0 239 0;
#X connect 239 0 240 0;
#X connect 240 0 241 1;
#X connect 241 0 128 1;
#X connect 242 0 286 1;
#X connect 245 0 166 0;
#X connect 247 0 164 1;
#X connect 247 0 3 0;
#X connect 249 0 188 0;
#X connect 250 0 119 0;
#X connect 252 0 164 0;
#X connect 252 0 3 0;
#X connect 254 0 255 0;
#X connect 254 0 257 0;
#X connect 255 0 256 0;
#X connect 256 0 259 0;
#X connect 257 0 256 1;
#X connect 258 0 260 0;
#X connect 261 0 258 1;
#X connect 262 0 258 0;
#X connect 263 0 272 0;
#X connect 264 0 266 2;
#X connect 264 0 270 0;
#X connect 265 0 266 1;
#X connect 265 0 271 0;
#X connect 266 0 263 0;
#X connect 267 0 265 0;
#X connect 267 1 264 0;
#X connect 268 0 282 0;
#X connect 269 0 268 2;
#X connect 272 0 274 0;
#X connect 273 0 268 1;
#X connect 274 0 277 0;
#X connect 275 0 267 0;
#X connect 276 0 267 0;
#X connect 277 0 278 0;
#X connect 278 0 282 1;
#X connect 279 0 268 0;
#X connect 280 0 269 0;
#X connect 281 0 266 0;
#X connect 284 0 269 0;
#X connect 285 0 275 0;
#X connect 286 0 3 0;
#X connect 288 0 289 0;
#X connect 289 0 290 0;
#X connect 290 0 291 1;
#X connect 291 0 298 0;
#X connect 292 0 170 0;
#X connect 293 0 166 1;
#X connect 294 0 164 0;
#X connect 296 0 241 0;
#X connect 297 0 268 0;
#X connect 298 0 119 1;
#X connect 300 0 291 0;
#X connect 301 0 288 0;
#X connect 302 0 238 0;
