#N canvas 0 21 1366 724 10;
#X obj 14 2 nanokontrol2_gui;
#X msg 51 156 todo: play/rec buffer ID LEN VOLUME;
#X msg 57 186 todo: ringmodulation;
#X msg 60 213 todo FM;
#X msg 55 128 todo:inputs/outputs router mit VU;
#X msg 58 240 todo: play/save wav;
#X msg 57 276 todo: unix interaction;
#X msg 57 312 todo: EQ/filterbank;
#X msg 5 341 todo: variable delay network;
#X obj 770 372 vu 15 120 empty empty -1 -8 0 10 -66577 -1 1 0;
#X obj 769 329 env~ 8192;
#X obj 769 348 - 100;
#X obj 1015 502 dac~;
#X obj 849 207 vsl 15 50 0 1 0 0 empty empty INPUT_VOLUME 0 -9 0 10
-4034 -1 -1 0 1;
#X obj 825 259 *~;
#X floatatom 849 260 5 0 0 0 - - -, f 5;
#X obj 845 415 writesf~;
#X msg 920 274 stop;
#X obj 1079 486 readsf~;
#N canvas 0 0 450 300 (subpatch) 0;
#X array array-rp 88100 float 0 black black;
#X coords 0 1 88099 -1 200 140 1;
#X restore 1050 42 graph;
#X obj 895 468 bng 15 250 50 0 empty empty empty 17 7 0 10 -4034 -1
-1;
#X obj 898 274 bng 15 250 50 0 empty empty empty 17 7 0 10 -4034 -1
-1;
#X msg 879 393 stop;
#X obj 879 373 del 2000;
#X msg 845 352 open record-test.wav \, start;
#X obj 879 332 bng 15 250 50 0 empty empty empty 17 7 0 10 -4034 -1
-1;
#X text 1094 9 88200 points = 2 seconds;
#X text 913 466 a2)play the array;
#X text 1078 405 b2)play the soundfile;
#X obj 1079 425 bng 15 250 50 0 empty empty empty 17 7 0 10 -4034 -1
-1;
#X msg 1086 465 stop;
#X msg 1079 444 open record-test.wav \, start;
#X text 836 310 b1)create a soundfile in the same folder;
#X obj 898 294 tabwrite~ array-rp;
#X text 892 255 a1)write in array-rp;
#X obj 895 486 tabplay~ array-rp;
#X msg 927 435 stop;
#N canvas 429 176 955 620 6-in 0;
#X obj 352 384 - 100;
#X obj 352 365 env~ 512;
#X obj 328 422 - 100;
#X obj 328 403 env~ 512;
#X obj 305 460 - 100;
#X obj 305 441 env~ 512;
#X obj 234 401 - 100;
#X obj 234 382 env~ 512;
#X obj 211 439 - 100;
#X obj 211 420 env~ 512;
#X obj 188 477 - 100;
#X obj 189 458 env~ 512;
#X obj 451 401 outlet;
#X obj 411 439 outlet;
#X obj 381 477 outlet;
#X obj 144 418 outlet;
#X obj 106 456 outlet;
#X obj 81 494 outlet;
#X obj 516 403 outlet~;
#X obj 544 383 outlet~;
#X obj 576 364 outlet~;
#X obj 616 344 outlet~;
#X obj 644 325 outlet~;
#X obj 669 305 outlet~;
#X obj 189 240 *~;
#X obj 211 217 *~;
#X obj 234 198 *~;
#X obj 305 225 *~;
#X obj 328 204 *~;
#X obj 352 185 *~;
#X obj 527 66 loadbang;
#X obj 37 168 line~;
#X obj 89 168 line~;
#X obj 150 167 line~;
#X obj 309 146 line~;
#X obj 364 149 line~;
#X obj 429 149 line~;
#X msg 527 109 20;
#X text 557 83 "LAG" TIME FOR INPUT VOLUME MODIFICATIONS IN MILISECONDS
;
#X obj 22 105 inlet;
#X obj 89 106 inlet;
#X obj 309 105 inlet;
#X obj 364 101 inlet;
#X obj 432 101 inlet;
#X obj 150 106 inlet;
#X obj 22 126 pack;
#X obj 89 126 pack;
#X obj 150 126 pack;
#X obj 309 126 pack;
#X obj 364 126 pack;
#X obj 429 126 pack;
#X obj 200 167 adc~ 1 2 3 4 5 6;
#X connect 0 0 12 0;
#X connect 1 0 0 0;
#X connect 2 0 13 0;
#X connect 3 0 2 0;
#X connect 4 0 14 0;
#X connect 5 0 4 0;
#X connect 6 0 15 0;
#X connect 7 0 6 0;
#X connect 8 0 16 0;
#X connect 9 0 8 0;
#X connect 10 0 17 0;
#X connect 11 0 10 0;
#X connect 24 0 11 0;
#X connect 24 0 18 0;
#X connect 25 0 9 0;
#X connect 25 0 19 0;
#X connect 26 0 7 0;
#X connect 26 0 20 0;
#X connect 27 0 5 0;
#X connect 27 0 21 0;
#X connect 28 0 3 0;
#X connect 28 0 22 0;
#X connect 29 0 1 0;
#X connect 29 0 23 0;
#X connect 30 0 37 0;
#X connect 31 0 24 1;
#X connect 32 0 25 1;
#X connect 33 0 26 1;
#X connect 34 0 27 1;
#X connect 35 0 28 1;
#X connect 36 0 29 1;
#X connect 37 0 45 1;
#X connect 37 0 46 1;
#X connect 37 0 47 1;
#X connect 37 0 48 1;
#X connect 37 0 49 1;
#X connect 37 0 50 1;
#X connect 39 0 45 0;
#X connect 40 0 46 0;
#X connect 41 0 48 0;
#X connect 42 0 49 0;
#X connect 43 0 50 0;
#X connect 44 0 47 0;
#X connect 45 0 31 0;
#X connect 46 0 32 0;
#X connect 47 0 33 0;
#X connect 48 0 34 0;
#X connect 49 0 35 0;
#X connect 50 0 36 0;
#X connect 51 0 24 0;
#X connect 51 1 25 0;
#X connect 51 2 26 0;
#X connect 51 3 27 0;
#X connect 51 4 28 0;
#X connect 51 5 29 0;
#X restore 497 62 pd 6-in monitor;
#N canvas 54 247 1366 722 6-out-monitor 0;
#X obj 239 281 dac~ 1 2 3 4 5 6;
#X obj 387 322 - 100;
#X obj 387 303 env~ 512;
#X obj 368 360 - 100;
#X obj 368 341 env~ 512;
#X obj 349 398 - 100;
#X obj 349 379 env~ 512;
#X obj 201 323 - 100;
#X obj 201 304 env~ 512;
#X obj 152 361 - 100;
#X obj 152 342 env~ 512;
#X obj 133 399 - 100;
#X obj 134 380 env~ 512;
#X obj 465 339 outlet;
#X obj 425 377 outlet;
#X obj 395 415 outlet;
#X obj 85 340 outlet;
#X obj 47 378 outlet;
#X obj 22 416 outlet;
#X obj 96 167 *~;
#X obj 152 167 *~;
#X obj 204 195 *~;
#X obj 348 226 *~;
#X obj 368 246 *~;
#X obj 387 265 *~;
#X obj 652 59 loadbang;
#X obj 363 146 line~;
#X obj 456 149 line~;
#X obj 584 139 line~;
#X msg 652 102 20;
#X text 682 76 "LAG" TIME FOR INPUT VOLUME MODIFICATIONS IN MILISECONDS
;
#X obj 391 100 inlet;
#X obj 489 100 inlet;
#X obj 584 100 inlet;
#X obj 391 119 pack;
#X obj 489 119 pack;
#X obj 584 119 pack;
#X obj 104 139 line~;
#X obj 195 139 line~;
#X obj 302 139 line~;
#X obj 104 100 inlet;
#X obj 195 100 inlet;
#X obj 302 100 inlet;
#X obj 104 119 pack;
#X obj 195 119 pack;
#X obj 302 119 pack;
#X obj 59 100 inlet~;
#X obj 152 100 inlet~;
#X obj 260 100 inlet~;
#X obj 348 100 inlet~;
#X obj 440 98 inlet~;
#X obj 541 100 inlet~;
#X connect 1 0 13 0;
#X connect 2 0 1 0;
#X connect 3 0 14 0;
#X connect 4 0 3 0;
#X connect 5 0 15 0;
#X connect 6 0 5 0;
#X connect 7 0 16 0;
#X connect 8 0 7 0;
#X connect 9 0 17 0;
#X connect 10 0 9 0;
#X connect 11 0 18 0;
#X connect 12 0 11 0;
#X connect 19 0 0 0;
#X connect 19 0 12 0;
#X connect 20 0 0 1;
#X connect 20 0 10 0;
#X connect 21 0 0 2;
#X connect 21 0 8 0;
#X connect 22 0 0 3;
#X connect 22 0 6 0;
#X connect 23 0 0 4;
#X connect 23 0 4 0;
#X connect 24 0 0 5;
#X connect 24 0 2 0;
#X connect 25 0 29 0;
#X connect 26 0 22 1;
#X connect 27 0 23 1;
#X connect 28 0 24 1;
#X connect 29 0 34 1;
#X connect 29 0 35 1;
#X connect 29 0 36 1;
#X connect 29 0 45 1;
#X connect 29 0 44 1;
#X connect 29 0 43 1;
#X connect 31 0 34 0;
#X connect 32 0 35 0;
#X connect 33 0 36 0;
#X connect 34 0 26 0;
#X connect 35 0 27 0;
#X connect 36 0 28 0;
#X connect 37 0 19 1;
#X connect 38 0 20 1;
#X connect 39 0 21 1;
#X connect 40 0 43 0;
#X connect 41 0 44 0;
#X connect 42 0 45 0;
#X connect 43 0 37 0;
#X connect 44 0 38 0;
#X connect 45 0 39 0;
#X connect 46 0 19 0;
#X connect 47 0 20 0;
#X connect 48 0 21 0;
#X connect 49 0 22 0;
#X connect 50 0 23 0;
#X connect 51 0 24 0;
#X restore 662 628 pd 6-out-monitor;
#X obj 670 645 vu 10 80 empty empty -1 0 0 10 -66577 -1 0 0;
#X obj 684 645 vu 10 80 empty empty -1 0 0 10 -66577 -1 0 0;
#X obj 698 645 vu 10 80 empty empty -1 0 0 10 -66577 -1 0 0;
#X obj 712 645 vu 10 80 empty empty -1 0 0 10 -66577 -1 0 0;
#X obj 726 645 vu 10 80 empty empty -1 0 0 10 -66577 -1 0 0;
#X obj 740 645 vu 10 80 empty empty -1 0 0 10 -66577 -1 0 0;
#X obj 497 81 vu 10 80 empty empty -1 0 0 10 -66577 -1 0 0;
#X obj 511 81 vu 10 80 empty empty -1 0 0 10 -66577 -1 0 0;
#X obj 525 81 vu 10 80 empty empty -1 0 0 10 -66577 -1 0 0;
#X obj 539 81 vu 10 80 empty empty -1 0 0 10 -66577 -1 0 0;
#X obj 553 81 vu 10 80 empty empty -1 0 0 10 -66577 -1 0 0;
#X obj 567 81 vu 10 80 empty empty -1 0 0 10 -66577 -1 0 0;
#X text 306 221 nummer 35;
#X obj 497 8 r nano1;
#X text 293 183 maren: 39 130;
#X obj 581 177 send~ mic1;
#X obj 595 158 send~ mic2;
#X obj 609 139 send~ mic3;
#X obj 623 120 send~ mic4;
#X obj 637 101 send~ mic5;
#X obj 651 82 send~ mic6;
#X floatatom 844 630 5 0 0 0 - - -, f 5;
#X obj 844 611 r nano8;
#X floatatom 578 25 5 0 0 0 - - -, f 5;
#X obj 866 137 *~ 0.5;
#X obj 866 114 delread~ del1;
#X obj 830 94 delwrite~ del1 1000;
#X obj 830 69 receive~ mic1;
#X obj 955 59 vsl 15 50 10 1000 0 0 empty empty empty 0 -9 0 10 -262144
-1 -1 0 1;
#X obj 975 82 vsl 15 50 0 1 0 0 empty empty empty 0 -9 0 10 -262144
-1 -1 0 1;
#X text 828 48 circular delay;
#N canvas 686 280 364 116 density-manager 0;
#N canvas 786 326 329 207 density-manager(bng) 0;
#X obj 109 86 bng 15 250 50 0 empty empty empty 17 7 0 10 -262144 -1
-1;
#X obj 174 45 loadbang;
#X msg 174 67 1;
#X obj 109 104 f;
#X obj 134 104 + 1;
#X obj 174 107 f;
#X obj 210 107 - 1;
#X obj 109 124 nbx 5 14 0 1000 0 0 empty empty empty 0 -8 0 10 -262144
-1 -1 0 256 0;
#X obj 33 38 vsl 15 128 0 127 0 0 empty empty empty 0 -9 0 10 -262144
-1 -1 0 1;
#X obj 174 87 metro 100;
#X obj 109 142 outlet;
#X text 166 151 0 to 1000;
#X obj 109 43 inlet;
#X text 31 17 tester;
#X obj 165 138 hsl 128 15 0 1000 0 0 empty empty empty -2 -8 0 10 -262144
-1 -1 0 1;
#X connect 0 0 3 0;
#X connect 1 0 2 0;
#X connect 2 0 9 0;
#X connect 3 0 7 0;
#X connect 4 0 3 1;
#X connect 5 0 7 0;
#X connect 6 0 5 1;
#X connect 7 0 6 0;
#X connect 7 0 4 0;
#X connect 7 0 10 0;
#X connect 7 0 14 0;
#X connect 8 0 0 0;
#X connect 9 0 5 0;
#X connect 12 0 0 0;
#X restore 19 31 pd density-manager(bng);
#X obj 19 13 bng 15 250 50 0 empty empty empty 17 7 0 10 -262144 -1
-1;
#X obj 19 50 nbx 5 14 0 1000 0 0 empty empty empty 0 -8 0 10 -262144
-1 -1 0 256 0;
#X obj 22 66 hsl 128 15 0 1000 0 0 empty empty empty -2 -8 0 10 -262144
-1 -1 0 1;
#X connect 0 0 2 0;
#X connect 1 0 0 0;
#X connect 2 0 3 0;
#X restore 229 665 pd density-manager;
#N canvas 578 276 439 240 peaker 0;
#N canvas 521 323 542 305 peaker(bng-norm-peakval-uptime-dwntime-var-inercy)
0;
#X obj 20 38 bng 15 250 50 0 empty empty empty 17 7 0 10 -262144 -1
-1;
#X obj 151 225 line;
#X floatatom 151 264 5 0 0 0 - - -, f 5;
#N canvas 655 341 315 289 gausser(ip-var-inercy) 0;
#X obj 41 63 tgl 15 0 empty empty empty 17 7 0 10 -262144 -1 -1 1 1
;
#X obj 109 98 gauss;
#X obj 109 196 line;
#X obj 162 63 nbx 5 20 -1e+37 1e+37 0 0 empty empty empty 0 -8 0 20
-260097 -1 -1 0 256 0;
#X text 107 11 INPUT;
#X text 60 61 ON/OFF;
#X obj 41 25 loadbang;
#X obj 109 229 nbx 5 20 -1e+37 1e+37 0 0 empty empty empty 0 -8 0 20
-4034 -1 -1 0 256 0;
#X text 118 210 RESULT;
#X floatatom 122 63 5 0 0 0 - - -, f 5;
#X obj 109 155 pack 0 0;
#X floatatom 205 139 5 0 0 0 - - -, f 5;
#X msg 109 176 \$1 \$2;
#X obj 109 253 outlet;
#X obj 109 27 inlet;
#X obj 153 27 inlet;
#X obj 205 27 inlet;
#X text 205 11 INERCY;
#X text 152 11 VARIANCE;
#X msg 41 44 1;
#X obj 41 81 metro 10;
#X connect 0 0 20 0;
#X connect 1 0 10 0;
#X connect 2 0 7 0;
#X connect 3 0 1 2;
#X connect 6 0 19 0;
#X connect 7 0 13 0;
#X connect 9 0 1 1;
#X connect 10 0 12 0;
#X connect 11 0 10 1;
#X connect 12 0 2 0;
#X connect 14 0 3 0;
#X connect 15 0 9 0;
#X connect 16 0 11 0;
#X connect 19 0 0 0;
#X connect 20 0 1 0;
#X restore 151 245 pd gausser(ip-var-inercy);
#X obj 151 132 pack 0 0 0 0;
#X obj 429 72 nbx 5 14 -1e+37 1e+37 0 0 empty empty empty 0 -8 0 10
-262144 -1 -1 0 256 0;
#X obj 373 72 nbx 5 14 -1e+37 1e+37 0 0 empty empty empty 0 -8 0 10
-262144 -1 -1 0 256 0;
#X obj 174 72 nbx 5 14 -1e+37 1e+37 0 0 empty empty empty 0 -8 0 10
-262144 -1 -1 0 256 0;
#X obj 114 72 nbx 5 14 -1e+37 1e+37 0 0 empty empty empty 0 -8 0 10
-262144 -1 -1 0 256 0;
#X obj 315 72 nbx 5 14 -1e+37 1e+37 0 0 empty empty empty 0 -8 0 10
-262144 -1 -1 0 256 0;
#X obj 245 72 nbx 5 14 -1e+37 1e+37 0 0 empty empty empty 0 -8 0 10
-262144 -1 -1 0 256 0;
#X obj 20 55 t b b b b b b;
#X text 114 54 normalval;
#X text 178 55 peakval;
#X text 248 55 risetime;
#X text 313 56 downtime;
#X text 377 54 variance;
#X text 435 56 inercy;
#X obj 230 115 +;
#X obj 300 115 +;
#X obj 230 95 random 500;
#X obj 300 96 random 500;
#X msg 151 175 \$1 0;
#X msg 186 175 \$2;
#X obj 186 194 del;
#X obj 151 152 t a a;
#X msg 234 169 \$2 \$3;
#X obj 213 195 list;
#X msg 275 169 \$2;
#X obj 275 188 del;
#X obj 283 208 list;
#X msg 304 169 \$1 \$4;
#X obj 20 19 inlet;
#X obj 114 20 inlet;
#X obj 174 20 inlet;
#X obj 245 19 inlet;
#X obj 315 19 inlet;
#X obj 373 20 inlet;
#X obj 429 19 inlet;
#X obj 257 280 outlet;
#X text 40 35 rise!;
#X connect 0 0 11 0;
#X connect 1 0 3 0;
#X connect 2 0 39 0;
#X connect 3 0 2 0;
#X connect 4 0 25 0;
#X connect 5 0 3 2;
#X connect 6 0 3 1;
#X connect 7 0 4 1;
#X connect 8 0 4 0;
#X connect 9 0 19 1;
#X connect 10 0 18 1;
#X connect 11 0 8 0;
#X connect 11 1 7 0;
#X connect 11 2 20 0;
#X connect 11 3 21 0;
#X connect 11 4 6 0;
#X connect 11 5 5 0;
#X connect 18 0 4 2;
#X connect 19 0 4 3;
#X connect 20 0 18 0;
#X connect 21 0 19 0;
#X connect 22 0 1 0;
#X connect 22 0 23 0;
#X connect 23 0 24 0;
#X connect 24 0 27 0;
#X connect 25 0 22 0;
#X connect 25 1 26 0;
#X connect 25 1 31 0;
#X connect 26 0 27 1;
#X connect 27 0 28 0;
#X connect 27 0 1 0;
#X connect 28 0 29 0;
#X connect 29 0 30 0;
#X connect 30 0 1 0;
#X connect 31 0 30 1;
#X connect 32 0 0 0;
#X connect 33 0 8 0;
#X connect 34 0 7 0;
#X connect 35 0 10 0;
#X connect 36 0 9 0;
#X connect 37 0 6 0;
#X connect 38 0 5 0;
#X restore 26 44 pd peaker(bng-norm-peakval-uptime-dwntime-var-inercy)
;
#X obj 26 26 bng 15 250 50 0 empty empty empty 17 7 0 10 -262144 -1
-1;
#X obj 341 28 nbx 5 14 -1e+37 1e+37 0 0 empty empty empty 0 -8 0 10
-262144 -1 -1 0 256 0;
#X obj 288 28 nbx 5 14 -1e+37 1e+37 0 0 empty empty empty 0 -8 0 10
-262144 -1 -1 0 256 0;
#X obj 131 27 nbx 5 14 -1e+37 1e+37 0 0 empty empty empty 0 -8 0 10
-262144 -1 -1 0 256 0;
#X obj 78 27 nbx 5 14 -1e+37 1e+37 0 0 empty empty empty 0 -8 0 10
-262144 -1 -1 0 256 0;
#X obj 236 28 nbx 5 14 -1e+37 1e+37 0 0 empty empty empty 0 -8 0 10
-262144 -1 -1 0 256 0;
#X obj 183 28 nbx 5 14 -1e+37 1e+37 0 0 empty empty empty 0 -8 0 10
-262144 -1 -1 0 256 0;
#X text 78 9 normalval;
#X text 135 11 peakval;
#X text 186 11 risetime;
#X text 238 11 downtime;
#X text 292 10 variance;
#X text 347 12 inercy;
#X text 46 23 rise!;
#X obj 26 64 nbx 5 14 -1e+37 1e+37 0 0 empty empty empty 0 -8 0 10
-262144 -1 -1 0 256 0;
#X text 88 61 risetime and downtime are added to a random 500 func
;
#X obj 26 83 vsl 15 128 0 1000 0 0 empty empty empty 0 -9 0 10 -262144
-1 -1 0 1;
#X connect 0 0 15 0;
#X connect 1 0 0 0;
#X connect 2 0 0 6;
#X connect 3 0 0 5;
#X connect 4 0 0 2;
#X connect 5 0 0 1;
#X connect 6 0 0 4;
#X connect 7 0 0 3;
#X connect 15 0 17 0;
#X restore 360 670 pd peaker;
#N canvas 626 459 261 221 randomizer 0;
#X obj 25 19 tgl 15 0 empty empty empty 17 7 0 10 -262144 -1 -1 0 1
;
#N canvas 736 246 573 458 dual-randomizer 0;
#X obj 106 91 bng 15 250 50 0 empty empty empty 17 7 0 10 -262144 -1
-1;
#X obj 7 106 t b b;
#X obj 139 76 tgl 15 0 empty empty empty 17 7 0 10 -262144 -1 -1 0
1;
#X obj 106 178 spigot;
#X text 163 71 on/off;
#X obj 106 297 outlet;
#X obj 362 312 outlet;
#X obj 126 11 inlet;
#X obj 126 30 route 0;
#X msg 126 49 0;
#X msg 165 49 1;
#X obj 106 198 random 100;
#X obj 106 218 / 100;
#X obj 106 278 line;
#X msg 106 258 \$1 \$2;
#X obj 106 238 pack 0 0;
#X obj 151 124 random 1000;
#X obj 7 161 del 1000;
#X obj 52 123 random 1000;
#X obj 52 142 + 1000;
#X obj 151 143 + 1000;
#X obj 362 106 bng 15 250 50 0 empty empty empty 17 7 0 10 -262144
-1 -1;
#X obj 263 121 t b b;
#X obj 395 91 tgl 15 0 empty empty empty 17 7 0 10 -262144 -1 -1 0
1;
#X obj 362 193 spigot;
#X text 419 86 on/off;
#X obj 362 213 random 100;
#X obj 362 233 / 100;
#X obj 362 293 line;
#X msg 362 273 \$1 \$2;
#X obj 362 253 pack 0 0;
#X obj 407 139 random 1000;
#X obj 263 176 del 1000;
#X obj 308 138 random 1000;
#X obj 308 157 + 1000;
#X obj 407 158 + 1000;
#X connect 0 0 1 0;
#X connect 1 0 17 0;
#X connect 1 1 16 0;
#X connect 1 1 18 0;
#X connect 2 0 3 1;
#X connect 2 0 0 0;
#X connect 2 0 23 0;
#X connect 3 0 0 0;
#X connect 3 0 11 0;
#X connect 7 0 8 0;
#X connect 8 0 9 0;
#X connect 8 1 10 0;
#X connect 9 0 2 0;
#X connect 10 0 2 0;
#X connect 11 0 12 0;
#X connect 12 0 15 0;
#X connect 13 0 5 0;
#X connect 14 0 13 0;
#X connect 15 0 14 0;
#X connect 16 0 20 0;
#X connect 17 0 3 0;
#X connect 18 0 19 0;
#X connect 19 0 17 1;
#X connect 20 0 15 1;
#X connect 21 0 22 0;
#X connect 22 0 32 0;
#X connect 22 1 31 0;
#X connect 22 1 33 0;
#X connect 23 0 24 1;
#X connect 23 0 21 0;
#X connect 24 0 21 0;
#X connect 24 0 26 0;
#X connect 26 0 27 0;
#X connect 27 0 30 0;
#X connect 28 0 6 0;
#X connect 29 0 28 0;
#X connect 30 0 29 0;
#X connect 31 0 35 0;
#X connect 32 0 24 0;
#X connect 33 0 34 0;
#X connect 34 0 32 1;
#X connect 35 0 30 1;
#X restore 25 37 pd dual-randomizer;
#X obj 25 59 vsl 15 128 0 1 0 0 empty empty empty 0 -9 0 10 -262144
-1 -1 0 1;
#X obj 130 59 vsl 15 128 0 1 0 0 empty empty empty 0 -9 0 10 -262144
-1 -1 0 1;
#X connect 0 0 1 0;
#X connect 1 0 2 0;
#X connect 1 1 3 0;
#X restore 360 701 pd randomizer;
#X text 752 458 vol;
#X obj 105 716 fiddle~;
#X obj 27 637 threshold~;
#X obj 153 621 env~ 64;
#X obj 75 471 receive~ mic1;
#X obj 166 472 r nano7K;
#X obj 258 443 vsl 15 40 0 1 0 0 empty empty empty 0 -9 0 10 -258049
-1 -1 0 1;
#N canvas 144 113 903 651 harmonizer(micIn-bypass-vol) 0;
#X obj 115 263 nbx 5 14 0 10000 0 0 empty empty empty 0 -8 0 10 -4033
-1 -1 0 256 0;
#X obj 50 263 nbx 5 14 0 10000 0 0 empty empty empty 0 -8 0 10 -4033
-1 -1 0 256 0;
#X obj 629 216 vsl 15 40 0 1 0 0 empty empty empty 0 -9 0 10 -258049
-1 -1 0 1;
#X obj 204 233 vsl 15 40 0 1 0 0 empty empty empty 0 -9 0 10 -4033
-1 -1 2794 1;
#N canvas 541 69 684 586 osc-fm(basefreq-modfreq-index-vol) 0;
#X obj 54 28 inlet;
#X obj 54 104 pack;
#X obj 54 124 line~;
#X obj 54 144 osc~;
#X obj 96 251 *~;
#X obj 54 83 nbx 5 14 0 10000 0 0 empty empty empty 0 -8 0 10 -4033
-1 -1 0 256 0;
#X obj 191 255 line~;
#X obj 191 104 pack;
#X obj 191 83 nbx 5 14 0 10000 0 0 empty empty empty 0 -8 0 10 -4033
-1 -1 0 256 0;
#X text 131 10 modfreq;
#X msg 473 87 20;
#X obj 473 67 loadbang;
#X obj 111 191 line~;
#X obj 275 188 vsl 15 40 0 1 0 0 empty empty empty 0 -9 0 10 -258049
-1 -1 0 1;
#X text 130 132 modindex;
#X obj 111 116 vsl 15 40 0 1 0 0 empty empty empty 0 -9 0 10 -258049
-1 -1 2794 1;
#X obj 96 272 *~;
#X obj 134 298 +~;
#X obj 136 27 inlet;
#X obj 195 26 inlet;
#X obj 275 40 inlet;
#X text 295 200 vol;
#X obj 134 398 *~;
#X obj 275 381 line~;
#X obj 275 246 pack;
#X obj 134 418 outlet~;
#X text 40 8 basefreq;
#X text 189 9 index;
#X text 280 17 vol;
#X obj 111 170 pack;
#X obj 134 373 osc~;
#X connect 0 0 8 0;
#X connect 1 0 2 0;
#X connect 2 0 3 0;
#X connect 3 0 4 0;
#X connect 4 0 16 0;
#X connect 5 0 1 0;
#X connect 6 0 16 1;
#X connect 6 0 17 1;
#X connect 7 0 6 0;
#X connect 8 0 7 0;
#X connect 10 0 1 1;
#X connect 10 0 7 1;
#X connect 10 0 24 1;
#X connect 10 0 29 1;
#X connect 11 0 10 0;
#X connect 12 0 4 1;
#X connect 13 0 24 0;
#X connect 15 0 29 0;
#X connect 16 0 17 0;
#X connect 17 0 30 0;
#X connect 18 0 5 0;
#X connect 19 0 15 0;
#X connect 20 0 13 0;
#X connect 22 0 25 0;
#X connect 23 0 22 1;
#X connect 24 0 23 0;
#X connect 29 0 12 0;
#X connect 30 0 22 0;
#X restore 50 281 pd osc-fm(basefreq-modfreq-index-vol);
#N canvas 440 211 315 312 gausser(mean-var-inercy-freq) 0;
#X obj 109 98 gauss;
#X obj 109 196 line;
#X floatatom 205 139 5 0 0 0 - - -, f 5;
#X msg 109 176 \$1 \$2;
#X obj 109 214 outlet;
#X obj 115 27 inlet;
#X obj 153 27 inlet;
#X obj 205 27 inlet;
#X text 205 11 INERCY;
#X text 152 11 VARIANCE;
#X msg 41 62 1;
#X obj 41 81 metro 100;
#X text 113 11 mean;
#X obj 249 27 inlet;
#X text 251 8 freq;
#X obj 109 155 pack;
#X obj 41 43 loadbang;
#X connect 0 0 15 0;
#X connect 1 0 4 0;
#X connect 2 0 15 1;
#X connect 3 0 1 0;
#X connect 5 0 0 2;
#X connect 6 0 0 1;
#X connect 7 0 2 0;
#X connect 10 0 11 0;
#X connect 11 0 0 0;
#X connect 13 0 11 1;
#X connect 15 0 3 0;
#X connect 16 0 10 0;
#X restore 281 137 pd gausser(mean-var-inercy-freq);
#X floatatom 281 118 5 0 0 0 - - -, f 5;
#X floatatom 344 118 5 0 0 0 - - -, f 5;
#X floatatom 407 118 5 0 0 0 - - -, f 5;
#X floatatom 470 119 5 0 0 0 - - -, f 5;
#X obj 162 -23 loadbang;
#X obj 50 195 fiddle~ 1024 1 20 3;
#X obj 50 215 mtof;
#X obj 423 304 *~;
#N canvas 374 391 312 208 bypass 0;
#X obj 82 23 hsl 40 15 0 1 0 0 empty empty empty -2 -8 0 10 -260097
-1 -1 0 1;
#X floatatom 93 38 5 0 0 0 - - -, f 5;
#X obj 79 79 vsl 15 40 0 1 0 0 empty empty empty 0 -9 0 10 -262144
-1 -1 0 1;
#X obj 28 38 - 1;
#X obj 28 57 abs;
#X obj 28 79 vsl 15 40 0 1 0 0 empty empty empty 0 -9 0 10 -262144
-1 -1 0 1;
#X obj 79 4 inlet;
#X obj 79 164 outlet;
#X obj 28 164 outlet;
#X msg 79 124 \$1 50;
#X obj 220 141 line~;
#X obj 220 165 outlet~;
#X obj 169 165 outlet~;
#X obj 169 141 line~;
#X obj 79 143 line;
#X msg 28 124 \$1 50;
#X obj 28 143 line;
#X connect 0 0 1 0;
#X connect 0 0 2 0;
#X connect 0 0 3 0;
#X connect 2 0 9 0;
#X connect 3 0 4 0;
#X connect 4 0 5 0;
#X connect 5 0 15 0;
#X connect 6 0 0 0;
#X connect 9 0 14 0;
#X connect 9 0 10 0;
#X connect 10 0 11 0;
#X connect 13 0 12 0;
#X connect 14 0 7 0;
#X connect 15 0 16 0;
#X connect 15 0 13 0;
#X connect 16 0 8 0;
#X restore 506 302 pd bypass;
#X obj 509 284 hsl 40 15 0 1 0 0 empty empty empty -2 -8 0 10 -260097
-1 -1 0 1;
#X obj 523 323 vsl 15 40 0 1 0 0 empty empty empty 0 -9 0 10 -262144
-1 -1 0 1;
#X obj 506 323 vsl 15 40 0 1 0 0 empty empty empty 0 -9 0 10 -262144
-1 -1 0 1;
#X obj 460 318 *~;
#X obj 567 318 *~;
#X obj 508 384 +~;
#X obj 432 179 inlet~;
#X obj 506 -9 inlet;
#X obj 614 -10 inlet;
#X obj 755 167 loadbang;
#X msg 755 189 20;
#X obj 719 413 line~;
#X obj 719 278 pack;
#X obj 600 429 *~;
#X obj 601 462 outlet~;
#X floatatom 50 159 5 0 0 0 - - -, f 5;
#X obj 162 28 unpack 0 0 0 0 0 0 0 0;
#N canvas 440 211 315 312 gausser(mean-var-inercy-freq) 0;
#X obj 109 98 gauss;
#X obj 109 196 line;
#X floatatom 205 139 5 0 0 0 - - -, f 5;
#X msg 109 176 \$1 \$2;
#X obj 109 214 outlet;
#X obj 115 27 inlet;
#X obj 153 27 inlet;
#X obj 205 27 inlet;
#X text 205 11 INERCY;
#X text 152 11 VARIANCE;
#X msg 41 62 1;
#X obj 41 81 metro 100;
#X text 113 11 mean;
#X obj 249 27 inlet;
#X text 251 8 freq;
#X obj 109 155 pack;
#X obj 41 43 loadbang;
#X connect 0 0 15 0;
#X connect 1 0 4 0;
#X connect 2 0 15 1;
#X connect 3 0 1 0;
#X connect 5 0 0 2;
#X connect 6 0 0 1;
#X connect 7 0 2 0;
#X connect 10 0 11 0;
#X connect 11 0 0 0;
#X connect 13 0 11 1;
#X connect 15 0 3 0;
#X connect 16 0 10 0;
#X restore 50 138 pd gausser(mean-var-inercy-freq);
#X floatatom 50 119 5 0 0 0 - - -, f 5;
#X floatatom 113 119 5 0 0 0 - - -, f 5;
#X floatatom 176 119 5 0 0 0 - - -, f 5;
#X floatatom 239 120 5 0 0 0 - - -, f 5;
#X msg 162 -3 1 1 2000 1000 0.7 0.2 200 100;
#X obj 115 238 *;
#X connect 0 0 4 1;
#X connect 1 0 4 0;
#X connect 2 0 4 3;
#X connect 2 0 27 0;
#X connect 3 0 4 2;
#X connect 4 0 13 0;
#X connect 5 0 3 0;
#X connect 6 0 5 0;
#X connect 7 0 5 1;
#X connect 8 0 5 2;
#X connect 9 0 5 3;
#X connect 10 0 37 0;
#X connect 11 0 12 0;
#X connect 12 0 1 0;
#X connect 12 0 38 0;
#X connect 13 0 18 0;
#X connect 14 0 17 0;
#X connect 14 1 16 0;
#X connect 14 2 18 1;
#X connect 14 3 19 0;
#X connect 15 0 14 0;
#X connect 18 0 20 0;
#X connect 19 0 20 1;
#X connect 20 0 28 0;
#X connect 21 0 11 0;
#X connect 21 0 13 1;
#X connect 21 0 19 1;
#X connect 22 0 15 0;
#X connect 23 0 2 0;
#X connect 24 0 25 0;
#X connect 25 0 27 1;
#X connect 26 0 28 1;
#X connect 27 0 26 0;
#X connect 28 0 29 0;
#X connect 30 0 38 1;
#X connect 31 0 33 0;
#X connect 31 1 34 0;
#X connect 31 2 35 0;
#X connect 31 3 36 0;
#X connect 31 4 6 0;
#X connect 31 5 7 0;
#X connect 31 6 8 0;
#X connect 31 7 9 0;
#X connect 32 0 30 0;
#X connect 33 0 32 0;
#X connect 34 0 32 1;
#X connect 35 0 32 2;
#X connect 36 0 32 3;
#X connect 37 0 31 0;
#X connect 38 0 0 0;
#X restore 75 492 pd harmonizer(micIn-bypass-vol);
#X text 83 446 Harmonizer;
#X text 300 244 Julia nr 16;
#X connect 10 0 11 0;
#X connect 11 0 9 0;
#X connect 13 0 14 1;
#X connect 13 0 15 0;
#X connect 14 0 16 0;
#X connect 14 0 10 0;
#X connect 14 0 33 0;
#X connect 17 0 33 0;
#X connect 18 0 12 0;
#X connect 18 0 12 1;
#X connect 20 0 35 0;
#X connect 21 0 33 0;
#X connect 22 0 16 0;
#X connect 23 0 22 0;
#X connect 24 0 16 0;
#X connect 25 0 23 0;
#X connect 25 0 24 0;
#X connect 29 0 31 0;
#X connect 30 0 18 0;
#X connect 31 0 18 0;
#X connect 35 0 12 1;
#X connect 35 0 12 0;
#X connect 36 0 35 0;
#X connect 37 0 45 0;
#X connect 37 1 46 0;
#X connect 37 2 47 0;
#X connect 37 3 48 0;
#X connect 37 4 49 0;
#X connect 37 5 50 0;
#X connect 37 6 54 0;
#X connect 37 7 55 0;
#X connect 37 8 56 0;
#X connect 37 9 57 0;
#X connect 37 10 58 0;
#X connect 37 11 59 0;
#X connect 38 0 39 0;
#X connect 38 1 40 0;
#X connect 38 2 41 0;
#X connect 38 3 42 0;
#X connect 38 4 43 0;
#X connect 38 5 44 0;
#X connect 52 0 37 0;
#X connect 52 0 37 1;
#X connect 52 0 37 2;
#X connect 52 0 37 3;
#X connect 52 0 37 4;
#X connect 52 0 37 5;
#X connect 52 0 62 0;
#X connect 61 0 60 0;
#X connect 61 0 38 1;
#X connect 61 0 38 3;
#X connect 61 0 38 5;
#X connect 61 0 38 7;
#X connect 61 0 38 9;
#X connect 61 0 38 11;
#X connect 63 0 65 0;
#X connect 64 0 63 0;
#X connect 66 0 65 0;
#X connect 67 0 64 0;
#X connect 68 0 63 1;
#X connect 77 0 80 0;
#X connect 78 0 80 1;
#X connect 79 0 80 2;
