#N canvas 105 356 678 315 10;
#X obj -713 -298 phasor~;
#X obj -712 -197 cos~;
#X obj -725 -169 noise~;
#X msg -713 -318 0.2;
#X obj -609 -198 cos~;
#X obj -507 -198 cos~;
#X obj -405 -198 cos~;
#X obj -302 -198 cos~;
#X obj -201 -198 cos~;
#X obj -584 -153 *~;
#X obj -554 -153 *~;
#X obj -523 -153 *~;
#X obj -495 -153 *~;
#X obj -467 -153 *~;
#X obj -439 -153 *~;
#X obj -712 -238 *~;
#X obj -713 -338 loadbang;
#X msg -720 -373 \; pd dsp 1;
#X msg -659 -373 \; pd dsp 0;
#X obj -711 -217 clip~ -0.25 0.25;
#X obj -609 -217 clip~ -0.25 0.25;
#X obj -507 -217 clip~ -0.25 0.25;
#X obj -405 -217 clip~ -0.25 0.25;
#X obj -303 -217 clip~ -0.25 0.25;
#X obj -201 -217 clip~ -0.25 0.25;
#X obj -608 -277 wrap~;
#X obj -506 -277 wrap~;
#X obj -406 -278 wrap~;
#X obj -302 -278 wrap~;
#X obj -201 -278 wrap~;
#X obj -609 -238 *~;
#X obj -507 -238 *~;
#X obj -405 -238 *~;
#X obj -303 -238 *~;
#X obj -201 -238 *~;
#X obj -713 -279 -~ 0.5;
#X obj -608 -258 -~ 0.5;
#X obj -506 -258 -~ 0.5;
#X obj -406 -259 -~ 0.5;
#X obj -302 -259 -~ 0.5;
#X obj -201 -259 -~ 0.5;
#X obj -750 -371 vsl 20 130 0 8 0 0 empty empty empty 0 -9 0 10 -262144
-1 -1 1500 1;
#X floatatom -752 -238 5 0 0 0 - - -;
#X text -705 -386 ON;
#X text -645 -386 OFF;
#X text -757 -386 INDEX;
#X obj -398 -149 hsl 128 15 0 1 0 0 empty empty empty -2 -8 0 10 -262144
-1 -1 1400 1;
#X floatatom -401 -132 5 0 0 0 - - -;
#X obj -584 -134 *~;
#X obj -554 -134 *~;
#X obj -523 -134 *~;
#X obj -495 -134 *~;
#X obj -467 -134 *~;
#X obj -439 -134 *~;
#X obj -162 -183 loadbang;
#X msg -162 -166 0;
#X obj -555 -113 dac~ 1 2 3 4 5 6;
#X obj -608 -296 -~ 0.1666;
#X obj -506 -296 -~ 0.1666;
#X obj -406 -297 -~ 0.1666;
#X obj -302 -297 -~ 0.1666;
#X obj -201 -297 -~ 0.1666;
#X obj -579 -350 hsl 40 15 0 1 0 0 empty empty empty -2 -8 0 10 -262144
-1 -1 2400 1;
#X floatatom -530 -335 5 0 0 0 - - -;
#X text -530 -356 freq;
#X text -357 -134 vol;
#X connect 0 0 35 0;
#X connect 0 0 57 0;
#X connect 1 0 9 1;
#X connect 2 0 9 0;
#X connect 2 0 10 0;
#X connect 2 0 11 0;
#X connect 2 0 12 0;
#X connect 2 0 13 0;
#X connect 2 0 14 0;
#X connect 3 0 0 0;
#X connect 4 0 10 1;
#X connect 5 0 11 1;
#X connect 6 0 12 1;
#X connect 7 0 13 1;
#X connect 8 0 14 1;
#X connect 9 0 48 0;
#X connect 10 0 49 0;
#X connect 11 0 50 0;
#X connect 12 0 51 0;
#X connect 13 0 52 0;
#X connect 14 0 53 0;
#X connect 15 0 19 0;
#X connect 16 0 3 0;
#X connect 19 0 1 0;
#X connect 20 0 4 0;
#X connect 21 0 5 0;
#X connect 22 0 6 0;
#X connect 23 0 7 0;
#X connect 24 0 8 0;
#X connect 25 0 36 0;
#X connect 26 0 37 0;
#X connect 27 0 38 0;
#X connect 28 0 39 0;
#X connect 29 0 40 0;
#X connect 30 0 20 0;
#X connect 31 0 21 0;
#X connect 32 0 22 0;
#X connect 33 0 23 0;
#X connect 34 0 24 0;
#X connect 35 0 15 0;
#X connect 36 0 30 0;
#X connect 37 0 31 0;
#X connect 38 0 32 0;
#X connect 39 0 33 0;
#X connect 40 0 34 0;
#X connect 41 0 42 0;
#X connect 41 0 15 1;
#X connect 41 0 30 1;
#X connect 41 0 31 1;
#X connect 41 0 32 1;
#X connect 41 0 33 1;
#X connect 41 0 34 1;
#X connect 46 0 47 0;
#X connect 46 0 53 1;
#X connect 46 0 52 1;
#X connect 46 0 51 1;
#X connect 46 0 50 1;
#X connect 46 0 49 1;
#X connect 46 0 48 1;
#X connect 48 0 56 0;
#X connect 49 0 56 1;
#X connect 50 0 56 2;
#X connect 51 0 56 3;
#X connect 52 0 56 4;
#X connect 53 0 56 5;
#X connect 54 0 55 0;
#X connect 55 0 46 0;
#X connect 57 0 25 0;
#X connect 57 0 58 0;
#X connect 58 0 26 0;
#X connect 58 0 59 0;
#X connect 59 0 27 0;
#X connect 59 0 60 0;
#X connect 60 0 28 0;
#X connect 60 0 61 0;
#X connect 61 0 29 0;
#X connect 62 0 0 0;
#X connect 62 0 63 0;
