#N canvas 507 22 867 937 12;
#X obj 612 75 receive WaveList;
#X obj 647 184 send HarmWaveForm;
#X obj 209 639 pack float float float float float float float float
;
#X obj 538 611 t b f;
#X obj 486 612 t b f;
#X obj 434 612 t b f;
#X obj 383 612 t b f;
#X obj 331 612 t b f;
#X obj 280 612 t b f;
#X obj 228 612 t b f;
#X obj 584 725 nbx 4 18 -1e+37 1e+37 0 0 empty empty empty 0 -8 0 10
-137954 -1 -1 0 256;
#X obj 530 725 nbx 4 18 -1e+37 1e+37 0 0 empty empty empty 0 -8 0 10
-137954 -1 -1 0 256;
#X obj 476 725 nbx 4 18 -1e+37 1e+37 0 0 empty empty empty 0 -8 0 10
-137954 -1 -1 0 256;
#X obj 423 725 nbx 4 18 -1e+37 1e+37 0 0 empty empty empty 0 -8 0 10
-137954 -1 -1 0 256;
#X obj 369 725 nbx 4 18 -1e+37 1e+37 0 0 empty empty empty 0 -8 0 10
-137954 -1 -1 0 256;
#X obj 209 698 unpack float float float float float float float float
;
#X obj 316 725 nbx 4 18 -1e+37 1e+37 0 0 empty empty empty 0 -8 0 10
-137954 -1 -1 0 256;
#X obj 262 725 nbx 4 18 -1e+37 1e+37 0 0 empty empty empty 0 -8 0 10
-137954 -1 -1 0 256;
#X obj 209 726 nbx 4 18 -1e+37 1e+37 0 0 empty empty empty 0 -8 0 10
-137954 -1 -1 0 256;
#X obj 593 643 s harm;
#X msg 593 615 0;
#X obj 593 592 bng 15 250 50 0 empty empty empty 17 7 0 10 -261682
-1 -1;
#X obj 538 558 nbx 4 18 -1e+37 1e+37 0 0 empty harm empty 0 -8 0 10
-191672 -1 -1 0 256;
#X obj 486 558 nbx 4 18 -1e+37 1e+37 0 0 empty harm empty 0 -8 0 10
-191672 -1 -1 0 256;
#X obj 434 558 nbx 4 18 -1e+37 1e+37 0 0 empty harm empty 0 -8 0 10
-191672 -1 -1 0 256;
#X obj 383 558 nbx 4 18 -1e+37 1e+37 0 0 empty harm empty 0 -8 0 10
-191672 -1 -1 0 256;
#X obj 331 558 nbx 4 18 -1e+37 1e+37 0 0 empty harm empty 0 -8 0 10
-191672 -1 -1 0 256;
#X obj 280 558 nbx 4 18 -1e+37 1e+37 0 0 empty harm empty 0 -8 0 10
-191672 -1 -1 0 256;
#X obj 228 558 nbx 4 18 -1e+37 1e+37 0 0 empty harm empty 0 -8 0 10
-191672 -1 -1 0 256;
#X obj 178 558 nbx 4 18 -1e+37 1e+37 0 0 empty harm empty 0 -8 0 10
-191672 -1 -1 0 256;
#X obj 486 584 f;
#X obj 434 584 f;
#X obj 383 584 f;
#X obj 331 584 f;
#X obj 280 584 f;
#X obj 228 584 f;
#X obj 178 584 f;
#X obj 584 245 cnv 15 198 138 empty empty empty 20 12 0 14 -204800
-66577 0;
#N canvas 0 22 474 324 (subpatch) 0;
#X array HarmWaveForm 4099 float 0;
#X coords 0 1 4098 -1 200 140 1;
#X restore 583 245 graph;
#X obj 257 345 phasor~;
#X obj 42 358 nbx 4 18 -1e+37 1e+37 0 1 empty empty empty 0 -8 0 10
-204800 -1 -1 310 256;
#X obj 257 399 tabread4~ HarmWaveForm;
#X obj 42 386 tabosc4~ HarmWaveForm;
#N canvas 0 22 961 600 normalize-list 0;
#X obj 432 142 minmax;
#X obj 379 243 list-math /;
#X obj 266 340 send WaveList;
#X obj 432 170 abs;
#X obj 453 193 max;
#X floatatom 453 219 5 0 0 0 - - -;
#X obj 379 119 t l l;
#X obj 379 302 outlet;
#X obj 379 89 inlet;
#X text 391 266 Divide by biggest absolute value;
#X text 375 342 We dont need to send the normalized values to the table.
;
#X connect 0 0 3 0;
#X connect 0 1 4 1;
#X connect 1 0 7 0;
#X connect 1 0 2 0;
#X connect 3 0 4 0;
#X connect 4 0 5 0;
#X connect 5 0 1 1;
#X connect 6 0 1 0;
#X connect 6 1 0 0;
#X connect 8 0 6 0;
#X restore 209 669 pd normalize-list;
#X obj 612 103 prepend sinesum 4096;
#X obj 313 427 hsl 128 15 0 1 0 0 empty empty empty -2 -8 0 10 -204800
-1 -1 0 1;
#N canvas 0 22 237 305 ganho 0;
#X obj 79 176 *~;
#X obj 67 208 dac~;
#X obj 108 146 line~;
#X msg 108 120 \$1 10;
#X obj 108 94 pow 4;
#X obj 108 67 inlet;
#X obj 79 36 inlet~;
#X connect 0 0 1 0;
#X connect 0 0 1 1;
#X connect 2 0 0 1;
#X connect 3 0 2 0;
#X connect 4 0 3 0;
#X connect 5 0 4 0;
#X connect 6 0 0 0;
#X restore 257 453 pd ganho;
#X obj 98 413 hsl 128 15 0 1 0 0 empty empty empty -2 -8 0 10 -204800
-1 -1 0 1;
#N canvas 0 22 237 305 ganho 0;
#X obj 79 176 *~;
#X obj 67 208 dac~;
#X obj 108 146 line~;
#X msg 108 120 \$1 10;
#X obj 108 94 pow 4;
#X obj 108 67 inlet;
#X obj 79 36 inlet~;
#X connect 0 0 1 0;
#X connect 0 0 1 1;
#X connect 2 0 0 1;
#X connect 3 0 2 0;
#X connect 4 0 3 0;
#X connect 5 0 4 0;
#X connect 6 0 0 0;
#X restore 42 439 pd ganho;
#X text 223 380 =;
#X obj 257 310 nbx 4 18 -1e+37 1e+37 0 1 empty empty empty 0 -8 0 10
-204800 -1 -1 300 256;
#X text 566 243 1;
#X text 561 364 -1;
#X text 612 589 Reset;
#X obj 257 372 *~ 4098;
#X text 25 237 we can also use [phasor~] to read tables by connecting
it to [tabread4~] \, just multiply its output to the table size minus
one and voilá! The difference is that you can now read any table size.
;
#X text 205 786 We also normalize the values just so it is easier to
see their proportional relationship. Furthermore \, we also normalize
the table with the "normalize" comand (so its values range from -1
to 1).;
#X text 301 749 --- normalized list ---;
#X text 272 526 ---- Partial Amplitude List ----;
#X text 24 52 In this example \, we're generating a list of 8 partials
and sending it with the "Sinesum 4096" comand to a table. This interprets
the list of values as amplitudes of a harmonic series and generates
a harmonic waveform on the table with 4096 points plus 3 \, where the
last 3 points are equal to the first ones.;
#X obj 612 127 t b a;
#X msg 612 154 normalize 1;
#X text 199 861 ============================================================
;
#X text 23 165 This is because the [tabosc4~] (a table oscillator)
needs a table size to be a power of 2 plus 3 like that \, so it can
can read the table with interpolation. You can then store any waveform
on a text file and load it into an array.;
#X text 321 373 table size - 1;
#X connect 0 0 44 0;
#X connect 2 0 43 0;
#X connect 3 0 30 0;
#X connect 3 1 2 7;
#X connect 4 0 31 0;
#X connect 4 1 2 6;
#X connect 5 0 32 0;
#X connect 5 1 2 5;
#X connect 6 0 33 0;
#X connect 6 1 2 4;
#X connect 7 0 34 0;
#X connect 7 1 2 3;
#X connect 8 0 35 0;
#X connect 8 1 2 2;
#X connect 9 0 36 0;
#X connect 9 1 2 1;
#X connect 15 0 18 0;
#X connect 15 1 17 0;
#X connect 15 2 16 0;
#X connect 15 3 14 0;
#X connect 15 4 13 0;
#X connect 15 5 12 0;
#X connect 15 6 11 0;
#X connect 15 7 10 0;
#X connect 20 0 19 0;
#X connect 21 0 20 0;
#X connect 22 0 3 0;
#X connect 23 0 30 0;
#X connect 24 0 31 0;
#X connect 25 0 32 0;
#X connect 26 0 33 0;
#X connect 27 0 34 0;
#X connect 28 0 35 0;
#X connect 29 0 36 0;
#X connect 30 0 4 0;
#X connect 31 0 5 0;
#X connect 32 0 6 0;
#X connect 33 0 7 0;
#X connect 34 0 8 0;
#X connect 35 0 9 0;
#X connect 36 0 2 0;
#X connect 39 0 54 0;
#X connect 40 0 42 0;
#X connect 41 0 46 0;
#X connect 42 0 48 0;
#X connect 43 0 15 0;
#X connect 44 0 60 0;
#X connect 45 0 46 1;
#X connect 47 0 48 1;
#X connect 50 0 39 0;
#X connect 54 0 41 0;
#X connect 60 0 61 0;
#X connect 60 1 1 0;
#X connect 61 0 1 0;
