#N canvas 1 51 450 300 10;
#X obj 201 90 makefilename %d;
#X obj 129 148 makefilename %d;
#X msg 93 172 set %02d:\$1;
#X obj 49 197 makefilename %d;
#X symbolatom 16 237 10 0 0 0 - - -, f 10;
#X obj 70 66 unpack 0 0 0;
#X obj 49 218 outlet;
#X obj 70 39 inlet;
#X msg 311 124 set %02d:\$1;
#X msg 173 123 set %02d;
#X connect 0 0 9 0;
#X connect 1 0 2 0;
#X connect 2 0 3 0;
#X connect 3 0 4 0;
#X connect 3 0 6 0;
#X connect 5 0 3 0;
#X connect 5 1 1 0;
#X connect 5 2 0 0;
#X connect 7 0 5 0;
#X connect 9 0 1 0;
