#N canvas 517 26 450 300 10;
#X obj 45 35 inlet;
#X obj 148 126 symbol \$1;
#X obj 190 166 float \$2;
#X obj 163 195 pack s 0;
#X msg 163 216 disconnect \, connect \$1 \$2;
#X obj 129 90 t b b b;
#X obj 50 157 spigot;
#X obj 83 138 tgl 15 0 empty empty empty 17 7 0 10 -262144 -1 -1 1
1;
#X msg 91 116 1;
#X msg 59 117 0;
#X obj 44 56 route send disconnect connect ip port;
#X obj 111 260 netsend;
#X obj 171 261 outlet;
#X obj 50 178 list prepend send;
#X obj 50 199 list trim;
#X obj 184 88 symbol;
#X connect 0 0 10 0;
#X connect 1 0 3 0;
#X connect 2 0 3 1;
#X connect 3 0 4 0;
#X connect 4 0 11 0;
#X connect 5 0 8 0;
#X connect 5 1 1 0;
#X connect 5 2 2 0;
#X connect 6 0 13 0;
#X connect 7 0 6 1;
#X connect 7 0 12 0;
#X connect 8 0 7 0;
#X connect 9 0 7 0;
#X connect 10 0 6 0;
#X connect 10 1 9 0;
#X connect 10 2 5 0;
#X connect 10 3 15 0;
#X connect 10 4 2 1;
#X connect 13 0 14 0;
#X connect 14 0 11 0;
#X connect 15 0 1 1;
