#N canvas 0 58 1366 699 10;
#N canvas 134 48 776 699 clock-works 1;
#X msg 97 188 bang;
#X msg 141 186 reset;
#X msg 206 214 step 1;
#X msg 210 255 mod 12;
#X obj 97 269 zaehler;
#X obj 323 225 bng 15 250 50 0 empty empty empty 17 7 0 10 -262144
-1 -1;
#X obj 323 181 tgl 15 0 empty empty empty 17 7 0 10 -262144 -1 -1 1
1;
#X msg 204 187 set \$1;
#X msg 136 138 0;
#X msg 102 136 1;
#X obj 99 62 inlet;
#X msg 165 66 start;
#X msg 215 65 stop;
#X msg 260 65 reset;
#X obj 176 137 t b b;
#X msg 326 103 stop;
#X obj 529 353 mod 10;
#X obj 99 314 t f f f;
#X floatatom 529 374 5 0 0 0 - - -, f 5;
#X floatatom 379 374 5 0 0 0 - - -, f 5;
#X floatatom 219 373 5 0 0 0 - - -, f 5;
#X obj 380 353 expr int($f1/10) % 60;
#X obj 219 352 expr int($f1/600) % 60;
#X obj 349 485 s \$0-uhr-cnv;
#X msg 349 459 label \$1;
#X obj 322 200 metro 100;
#X obj 82 35 hradio 15 1 0 8 empty empty empty 0 -8 0 10 -262144 -1
-1 0;
#X obj 330 414 pack 0 0 0;
#X obj 330 435 makeclocksym;
#X symbolatom 330 508 10 0 0 0 - - -, f 10;
#X msg 256 43 set 0;
#X obj 99 115 route start stop reset set time;
#X floatatom 45 71 5 0 0 0 - - -, f 5;
#X msg 45 89 time \$1;
#X obj 10 49 r \$0-clock;
#X obj 124 440 outlet;
#X floatatom 32 300 5 0 0 0 - - -, f 5;
#X obj 395 285 bng 15 250 50 0 empty empty empty 17 7 0 10 -262144
-1 -1;
#X obj 449 39 loadbang;
#X connect 0 0 4 0;
#X connect 1 0 4 0;
#X connect 2 0 4 0;
#X connect 3 0 4 0;
#X connect 4 0 36 0;
#X connect 4 0 17 0;
#X connect 4 1 37 0;
#X connect 6 0 25 0;
#X connect 7 0 4 0;
#X connect 8 0 6 0;
#X connect 9 0 6 0;
#X connect 10 0 31 0;
#X connect 11 0 31 0;
#X connect 12 0 31 0;
#X connect 13 0 31 0;
#X connect 14 0 1 0;
#X connect 14 1 15 0;
#X connect 15 0 31 0;
#X connect 16 0 18 0;
#X connect 17 0 22 0;
#X connect 17 0 35 0;
#X connect 17 1 21 0;
#X connect 17 2 16 0;
#X connect 18 0 27 2;
#X connect 19 0 27 1;
#X connect 20 0 27 0;
#X connect 21 0 19 0;
#X connect 22 0 20 0;
#X connect 24 0 23 0;
#X connect 25 0 5 0;
#X connect 25 0 4 0;
#X connect 27 0 28 0;
#X connect 28 0 24 0;
#X connect 28 0 29 0;
#X connect 30 0 31 0;
#X connect 31 0 9 0;
#X connect 31 1 8 0;
#X connect 31 2 14 0;
#X connect 31 3 7 0;
#X connect 31 4 17 0;
#X connect 32 0 33 0;
#X connect 33 0 31 0;
#X connect 34 0 31 0;
#X connect 37 0 12 0;
#X connect 38 0 13 0;
#X restore 22 90 pd clock-works;
#X obj 22 43 route clock;
#N canvas 1052 712 450 300 gui-ctl 0;
#X obj 88 203 s \$0-clock;
#X msg 121 168 start;
#X msg 54 164 stop;
#X obj 124 116 r \$0-start;
#X obj 54 116 r \$0-stop;
#X obj 206 115 r \$0-reset;
#X msg 204 168 reset;
#X connect 1 0 0 0;
#X connect 2 0 0 0;
#X connect 3 0 1 0;
#X connect 4 0 2 0;
#X connect 5 0 6 0;
#X connect 6 0 0 0;
#X restore 104 44 pd gui-ctl;
#X obj 21 12 netreceive 3001;
#N canvas 386 162 811 523 net-works 0;
#X obj 218 300 textfile;
#X obj 316 271 openpanel;
#X obj 347 240 bng 15 250 50 0 empty empty empty 17 7 0 10 -262144
-1 -1;
#X msg 224 253 rewind \, bang;
#X obj 148 320 bng 15 250 50 0 empty empty empty 17 7 0 10 -262144
-1 -1;
#X msg 116 309 stop;
#X obj 146 343 del 1;
#X obj 316 215 inlet;
#X obj 59 258 netconnection-pd-kurs;
#X msg 36 163 jong send clock start;
#X msg 52 191 jong send clock stop;
#X msg 62 223 jong send clock reset;
#X msg -21 102 jong ip 192.168.1.166 \, jong connect;
#X obj -113 396 list trim;
#X msg -27 126 richard ip 192.168.1.247 \, richard connect;
#X msg -33 66 chris ip 192.168.1.194 \, chris connect;
#X obj 218 388 print netconnect;
#X obj 220 335 route #;
#X obj -110 150 inlet;
#X obj -122 370 list prepend alle send clock time;
#X msg 316 294 read \$1 cr \, rewind \, bang;
#X msg -107 215 alle send clock time \$1;
#X connect 0 0 4 0;
#X connect 0 0 17 0;
#X connect 1 0 20 0;
#X connect 2 0 1 0;
#X connect 3 0 0 0;
#X connect 4 0 6 0;
#X connect 5 0 6 0;
#X connect 6 0 0 0;
#X connect 7 0 1 0;
#X connect 9 0 8 0;
#X connect 10 0 8 0;
#X connect 11 0 8 0;
#X connect 12 0 8 0;
#X connect 14 0 8 0;
#X connect 15 0 8 0;
#X connect 17 1 16 0;
#X connect 17 1 8 0;
#X connect 18 0 19 0;
#X connect 18 0 21 0;
#X connect 19 0 13 0;
#X connect 20 0 0 0;
#X connect 21 0 8 0;
#X restore 24 133 pd net-works;
#X obj 89 110 bng 15 250 50 0 empty empty empty 17 7 0 10 -262144 -1
-1;
#X obj -1 -4 cnv 15 1400 717 \$0-uhr-cnv \$0-uhr-cnv 45:03 570 300
0 200 -1 -262144 0;
#X obj 523 345 bng 15 250 50 0 \$0-start \$0-start start 17 7 0 10
-99865 -1 -260097;
#X obj 524 366 bng 15 250 50 0 \$0-stop \$0-stop stop 17 7 0 10 -112348
-1 -260097;
#X obj 525 386 bng 15 250 50 0 \$0-reset \$0-reset reset 17 7 0 10
-99865 -1 -260097;
#X connect 0 0 4 0;
#X connect 1 0 0 0;
#X connect 3 0 1 0;
#X connect 5 0 4 1;
