#N canvas 546 256 450 300 10;
#X text 108 13 Zaehler;
#X msg 59 102 bang;
#X obj 63 124 float;
#X obj 64 13 inlet;
#X obj 22 232 outlet;
#X msg 131 74 set \$1;
#X obj 64 34 route bang reset set step mod;
#X obj 112 181 mod 1e+36;
#X obj 111 127 - 1;
#X msg 273 97 27050;
#X obj 111 149 moses 0;
#X text 225 149 send bang when number ws below zero;
#X obj 297 184 bang;
#X obj 297 206 outlet;
#X msg 125 96 27059;
#X connect 1 0 2 0;
#X connect 2 0 8 0;
#X connect 3 0 6 0;
#X connect 5 0 14 0;
#X connect 6 0 1 0;
#X connect 6 1 14 0;
#X connect 6 2 5 0;
#X connect 6 2 4 0;
#X connect 6 2 2 1;
#X connect 6 3 8 1;
#X connect 6 4 7 1;
#X connect 7 0 4 0;
#X connect 7 0 2 1;
#X connect 8 0 10 0;
#X connect 10 0 12 0;
#X connect 10 1 7 0;
#X connect 12 0 13 0;
#X connect 14 0 2 1;
#X connect 14 0 4 0;
